<svg width="25" height="25" viewBox="0 0 25 25" fill="none" xmlns="http://www.w3.org/2000/svg">
<path d="M18.7408 2.81787V10.8179M22.7408 6.81787H14.7408M3.24084 6.81787C3.24084 5.27787 3.24084 4.50787 3.58784 3.94187C3.78184 3.62487 4.04784 3.35887 4.36484 3.16487C4.92984 2.81787 5.70084 2.81787 7.24084 2.81787C8.78084 2.81787 9.55084 2.81787 10.1168 3.16487C10.4338 3.35887 10.6998 3.62487 10.8938 3.94187C11.2408 4.50687 11.2408 5.27787 11.2408 6.81787C11.2408 8.35787 11.2408 9.12787 10.8938 9.69387C10.6998 10.0109 10.4338 10.2769 10.1168 10.4709C9.55184 10.8179 8.78084 10.8179 7.24084 10.8179C5.70084 10.8179 4.93084 10.8179 4.36484 10.4709C4.04808 10.2769 3.7818 10.0106 3.58784 9.69387C3.24084 9.12887 3.24084 8.35787 3.24084 6.81787ZM4.52284 15.5999C5.56984 14.5529 6.09284 14.0299 6.71284 13.8799C7.05991 13.7965 7.42178 13.7965 7.76884 13.8799C8.38884 14.0299 8.91184 14.5529 9.95884 15.5999C11.0058 16.6469 11.5288 17.1699 11.6788 17.7899C11.7607 18.1371 11.7607 18.4986 11.6788 18.8459C11.5288 19.4659 11.0058 19.9899 9.95884 21.0359C8.91184 22.0819 8.38884 22.6059 7.76884 22.7559C7.42178 22.8393 7.05991 22.8393 6.71284 22.7559C6.09284 22.6059 5.56984 22.0829 4.52284 21.0359C3.47584 19.9889 2.95284 19.4659 2.80284 18.8459C2.71945 18.4988 2.71945 18.1369 2.80284 17.7899C2.95284 17.1699 3.47584 16.6459 4.52284 15.5999ZM14.7408 18.8179C14.7408 17.2779 14.7408 16.5079 15.0878 15.9419C15.2818 15.6249 15.5478 15.3589 15.8648 15.1649C16.4298 14.8179 17.2008 14.8179 18.7408 14.8179C20.2808 14.8179 21.0508 14.8179 21.6178 15.1649C21.9338 15.3589 22.1998 15.6249 22.3938 15.9419C22.7408 16.5069 22.7408 17.2779 22.7408 18.8179C22.7408 20.3579 22.7408 21.1279 22.3938 21.6949C22.1997 22.0109 21.9339 22.2768 21.6178 22.4709C21.0508 22.8179 20.2808 22.8179 18.7408 22.8179C17.2008 22.8179 16.4308 22.8179 15.8648 22.4709C15.5482 22.2772 15.2819 22.0113 15.0878 21.6949C14.7408 21.1279 14.7408 20.3579 14.7408 18.8179Z" stroke="#095A66" stroke-width="1.5" stroke-linecap="round" stroke-linejoin="round"/>
</svg>
