<svg width="100" height="30" viewBox="0 0 100 30" fill="none" xmlns="http://www.w3.org/2000/svg">
<g clip-path="url(#clip0_3_262)">
<path fill-rule="evenodd" clip-rule="evenodd" d="M14.1876 0.0739276C14.0489 0.153678 13.6936 0.502928 13.4376 0.811428C13.0664 1.25868 12.9456 1.40143 12.8379 1.52068C12.7756 1.58943 12.5949 1.80518 12.4359 1.99993C12.2769 2.19468 12.0781 2.42918 11.9944 2.52068C11.9104 2.61243 11.7676 2.78118 11.6769 2.89568C11.5859 3.01043 11.4621 3.15668 11.4016 3.22093C11.3414 3.28493 11.2919 3.34593 11.2919 3.35618C11.2919 3.36643 11.2589 3.40818 11.2189 3.44893C11.1789 3.48968 11.0616 3.62418 10.9584 3.74768C10.8554 3.87118 10.7381 4.00668 10.6981 4.04868C10.6579 4.09068 10.6251 4.13243 10.6251 4.14168C10.6251 4.15093 10.5694 4.22143 10.5014 4.29843L10.3774 4.43843L9.76165 4.38468C9.42315 4.35518 8.81315 4.30343 8.4064 4.26968C7.99965 4.23593 7.3339 4.18043 6.92715 4.14643C4.7344 3.96343 4.7549 3.96368 4.4244 4.13368C4.28315 4.20643 4.20665 4.28293 4.1339 4.42418C3.9639 4.75468 3.96365 4.73418 4.14665 6.92693C4.18065 7.33368 4.23615 7.99943 4.27015 8.40618C4.3039 8.81293 4.35615 9.42268 4.38615 9.76143C4.4399 10.3649 4.4394 10.3779 4.3559 10.4354C4.30915 10.4674 4.2034 10.5562 4.1209 10.6322C3.96615 10.7754 3.9264 10.8092 3.54115 11.1247C3.4154 11.2277 3.23765 11.3804 3.1459 11.4642C3.0544 11.5479 2.88565 11.6909 2.7709 11.7817C2.6564 11.8724 2.51015 11.9962 2.4459 12.0567C2.38165 12.1172 2.3114 12.1667 2.28965 12.1667C2.2679 12.1667 2.2499 12.1807 2.2499 12.1979C2.24965 12.2149 2.0999 12.3509 1.9169 12.4999C1.7339 12.6489 1.5839 12.7849 1.5839 12.8019C1.58365 12.8192 1.5569 12.8332 1.5244 12.8332C1.4919 12.8332 1.45915 12.8502 1.45165 12.8712C1.4439 12.8919 1.2974 13.0262 1.12615 13.1692C0.954646 13.3124 0.792896 13.4502 0.766146 13.4752C0.739646 13.5002 0.592896 13.6314 0.440146 13.7667C-0.172104 14.3082 -0.177354 14.8664 0.424896 15.4072C0.520146 15.4927 0.627396 15.5922 0.663646 15.6284C0.699646 15.6647 0.888646 15.8237 1.0834 15.9819C1.27815 16.1399 1.4469 16.2802 1.4584 16.2934C1.4699 16.3067 1.67615 16.4827 1.9169 16.6844C2.1574 16.8862 2.36065 17.0677 2.36815 17.0879C2.3759 17.1084 2.40715 17.1249 2.43765 17.1249C2.46815 17.1249 2.4994 17.1414 2.50715 17.1619C2.51465 17.1822 2.66165 17.3149 2.8334 17.4569C3.0054 17.5989 3.25665 17.8119 3.3919 17.9304C3.52715 18.0489 3.68815 18.1832 3.74965 18.2292C3.81115 18.2749 3.9924 18.4294 4.15215 18.5724L4.44265 18.8324L4.39015 19.2807C4.36115 19.5274 4.33715 19.8322 4.33665 19.9582C4.33615 20.0842 4.3074 20.4779 4.27265 20.8332C4.2379 21.1884 4.1819 21.8167 4.1479 22.2292C4.11415 22.6417 4.0669 23.2134 4.0429 23.4999C3.91965 24.9759 4.1759 25.2742 5.4734 25.1654C5.75165 25.1422 6.3169 25.0952 6.7294 25.0609C7.42415 25.0032 8.7439 24.8892 9.8644 24.7902C10.3209 24.7499 10.5001 24.7767 10.5001 24.8849C10.5001 24.9024 10.5329 24.9507 10.5731 24.9922C10.6131 25.0337 10.7304 25.1682 10.8334 25.2907C10.9366 25.4134 11.0584 25.5559 11.1044 25.6072C11.2174 25.7334 11.4454 26.0072 11.7096 26.3332C11.8304 26.4822 11.9511 26.6229 11.9784 26.6457C12.0056 26.6687 12.1564 26.8469 12.3139 27.0417C12.5804 27.3714 12.7181 27.5332 12.8771 27.7022C12.9124 27.7399 13.0249 27.8739 13.1269 27.9999C13.3396 28.2629 13.3119 28.2307 13.6669 28.6279C14.2491 29.2799 14.9916 29.3864 15.3364 28.8674C15.3641 28.8257 15.6459 28.4942 15.7689 28.3582C15.8159 28.3062 15.9386 28.1634 16.0419 28.0407C16.1449 27.9182 16.2621 27.7837 16.3021 27.7422C16.3424 27.7007 16.3751 27.6572 16.3751 27.6457C16.3751 27.6342 16.4079 27.5909 16.4481 27.5494C16.4881 27.5079 16.6054 27.3732 16.7084 27.2504C16.8116 27.1274 16.9289 26.9979 16.9689 26.9624C17.0089 26.9272 17.0419 26.8742 17.0419 26.8449C17.0419 26.8154 17.0559 26.7914 17.0731 26.7914C17.0901 26.7914 17.1981 26.6749 17.3126 26.5327C17.4271 26.3907 17.5679 26.2249 17.6251 26.1644C17.7319 26.0517 17.7609 26.0174 18.0834 25.6242C18.1864 25.4987 18.3229 25.3394 18.3869 25.2707C18.4509 25.2019 18.5729 25.0549 18.6579 24.9439L18.8126 24.7419L19.0209 24.7667C19.1356 24.7802 19.3886 24.8017 19.5834 24.8142C19.7781 24.8264 20.3219 24.8724 20.7919 24.9162C21.2616 24.9599 22.0116 25.0254 22.4584 25.0617C22.9054 25.0982 23.4871 25.1467 23.7511 25.1697C25.1264 25.2892 25.3116 24.9644 25.1079 22.7917C25.0724 22.4134 25.0146 21.7572 24.9796 21.3332C24.9446 20.9092 24.8771 20.1712 24.8296 19.6929C24.7821 19.2147 24.7589 18.8104 24.7779 18.7944C24.7971 18.7784 24.9156 18.6822 25.0414 18.5807C25.1671 18.4789 25.3079 18.3572 25.3539 18.3099C25.3999 18.2627 25.5689 18.1199 25.7294 17.9924C25.8896 17.8649 26.0686 17.7159 26.1271 17.6614C26.1854 17.6069 26.3354 17.4782 26.4604 17.3752C26.5854 17.2722 26.7086 17.1689 26.7344 17.1459C26.7601 17.1229 26.8709 17.0292 26.9806 16.9374C27.0901 16.8457 27.2004 16.7519 27.2254 16.7289C27.2504 16.7059 27.3741 16.6037 27.5001 16.5017C27.6261 16.3997 27.7594 16.2872 27.7961 16.2519C27.9121 16.1404 28.0964 15.9852 28.3334 15.7997C29.5194 14.8717 29.5281 14.3787 28.3751 13.4217C28.2034 13.2789 28.0159 13.1202 27.9584 13.0684C27.9011 13.0169 27.6956 12.8444 27.5019 12.6852C27.3081 12.5259 27.1019 12.3512 27.0436 12.2967C26.9854 12.2422 26.8159 12.0992 26.6669 11.9792C26.5179 11.8589 26.3481 11.7159 26.2899 11.6614C26.1974 11.5752 25.9966 11.4059 25.6291 11.1042C25.5731 11.0582 25.4931 10.9879 25.4514 10.9479C25.4094 10.9077 25.3669 10.8749 25.3569 10.8749C25.3469 10.8749 25.2579 10.8022 25.1591 10.7134C25.0601 10.6244 24.9259 10.5067 24.8604 10.4514L24.7414 10.3509L24.8274 9.51918C24.8744 9.06168 24.9426 8.31243 24.9789 7.85418C25.0151 7.39568 25.0736 6.72068 25.1089 6.35418C25.3214 4.14768 25.1486 3.89268 23.5419 4.03993C23.3011 4.06193 22.7386 4.10918 22.2919 4.14493C21.4854 4.20918 20.6309 4.28168 19.4456 4.38643L18.8289 4.44093L18.6344 4.20993C18.5274 4.08293 18.3986 3.93218 18.3484 3.87493C18.2979 3.81768 18.1789 3.67693 18.0834 3.56243C17.8551 3.28818 17.5731 2.95593 17.5209 2.89918C17.4979 2.87443 17.3946 2.75118 17.2916 2.62568C17.1886 2.49993 17.0669 2.35143 17.0209 2.29543C16.9751 2.23968 16.9094 2.16318 16.8751 2.12568C16.8406 2.08793 16.7101 1.93643 16.5846 1.78893C16.4594 1.64143 16.3151 1.47393 16.2644 1.41668C16.2136 1.35943 16.0564 1.17193 15.9149 0.999928C15.7731 0.828178 15.6406 0.681178 15.6204 0.673428C15.6001 0.665928 15.5834 0.643678 15.5834 0.624178C15.5834 0.566928 15.1894 0.179178 15.0366 0.0859276C14.8524 -0.0263224 14.3739 -0.0330724 14.1876 0.0739276ZM14.8799 3.98943C15.0206 4.16718 15.1521 4.31868 15.1721 4.32643C15.1921 4.33393 15.2084 4.35743 15.2084 4.37843C15.2084 4.39943 15.2414 4.45093 15.2814 4.49293C15.4571 4.67693 15.6251 4.88593 15.6251 4.92068C15.6251 4.94143 15.6404 4.95818 15.6589 4.95818C15.6774 4.95818 15.7841 5.08318 15.8961 5.23568C16.3081 5.79693 16.4086 5.86243 16.6096 5.70218C16.6356 5.68143 16.8326 5.57393 17.0471 5.46318C17.2619 5.35243 17.5406 5.20068 17.6664 5.12593C17.7924 5.05143 17.9329 4.97343 17.9789 4.95293C18.0249 4.93243 18.2126 4.83243 18.3959 4.73093C18.5794 4.62943 18.7404 4.54518 18.7539 4.54393C18.7776 4.54168 18.8206 4.66743 18.9446 5.10418C19.0684 5.53968 19.1386 5.77818 19.2086 5.99993C19.2484 6.12593 19.3089 6.32293 19.3429 6.43743C19.3771 6.55193 19.4386 6.75268 19.4796 6.88368L19.5541 7.12143L19.8916 7.09943C20.0774 7.08718 20.4254 7.04993 20.6654 7.01668C20.9051 6.98318 21.3269 6.93793 21.6029 6.91568C21.8786 6.89368 22.1574 6.86418 22.2221 6.85043L22.3399 6.82518L22.3146 7.17293C22.2916 7.48893 22.2664 7.74343 22.1269 9.06243C22.0611 9.68143 22.0459 9.63468 22.3439 9.72343C22.4871 9.76593 22.7074 9.83393 22.8334 9.87393C23.1076 9.96143 23.3676 10.0382 23.9794 10.2127C24.2314 10.2844 24.4889 10.3617 24.5514 10.3847L24.6651 10.4262L24.4926 10.7442C24.3979 10.9192 24.2586 11.1749 24.1836 11.3124C24.1084 11.4499 23.9984 11.6562 23.9386 11.7707C23.8791 11.8854 23.7879 12.0542 23.7361 12.1457C23.6844 12.2374 23.5804 12.4244 23.5049 12.5614L23.3676 12.8104L23.4859 12.9094C23.5511 12.9639 23.6441 13.0419 23.6929 13.0829C23.7416 13.1237 23.9096 13.2577 24.0664 13.3807C24.2229 13.5034 24.3986 13.6484 24.4569 13.7024C24.5151 13.7564 24.6424 13.8579 24.7396 13.9282C24.8371 13.9984 24.9169 14.0712 24.9169 14.0904C24.9169 14.1094 24.9449 14.1249 24.9794 14.1249C25.0136 14.1249 25.0419 14.1399 25.0419 14.1584C25.0419 14.1769 25.1536 14.2752 25.2901 14.3772C25.5899 14.6007 25.5861 14.5739 25.3434 14.7589C25.2344 14.8422 25.0984 14.9504 25.0414 14.9994C24.8084 15.1992 24.7584 15.2404 24.4584 15.4797C24.2866 15.6169 24.1271 15.7497 24.1044 15.7747C24.0814 15.7999 23.9444 15.9094 23.7999 16.0184C23.3434 16.3629 23.3521 16.3422 23.5276 16.6629C23.6104 16.8139 23.7271 17.0312 23.7871 17.1457C23.8469 17.2604 23.9064 17.3634 23.9191 17.3749C23.9319 17.3864 23.9799 17.4707 24.0256 17.5624C24.1844 17.8799 24.5529 18.5627 24.6096 18.6447C24.6939 18.7657 24.6826 18.7849 24.5106 18.8162C24.4246 18.8317 24.2886 18.8679 24.2084 18.8969C24.1284 18.9257 23.9126 18.9899 23.7294 19.0397C23.5459 19.0894 23.3304 19.1552 23.2501 19.1857C23.1699 19.2162 22.9824 19.2734 22.8334 19.3129C22.6844 19.3524 22.4919 19.4107 22.4056 19.4422C22.3191 19.4739 22.2114 19.4999 22.1659 19.4999C22.0686 19.4999 22.0656 19.5437 22.1239 20.0962C22.2304 21.1047 22.2914 21.7159 22.3154 22.0167L22.3416 22.3459L22.1189 22.3174C21.9964 22.3017 21.6896 22.2717 21.4376 22.2509C21.1856 22.2299 20.8386 22.1942 20.6669 22.1714C20.4949 22.1487 20.1739 22.1179 19.9534 22.1032L19.5524 22.0762L19.5009 22.2152C19.4724 22.2917 19.4344 22.4197 19.4164 22.4999C19.3981 22.5802 19.3639 22.7019 19.3401 22.7707C19.3161 22.8394 19.2294 23.1207 19.1469 23.3957C19.0646 23.6707 18.9719 23.9802 18.9409 24.0832C18.9099 24.1864 18.8626 24.3514 18.8359 24.4499C18.7794 24.6577 18.7559 24.6574 18.3751 24.4442C18.2491 24.3734 18.0804 24.2809 18.0001 24.2382C17.9199 24.1957 17.7231 24.0884 17.5626 24.0004C17.4021 23.9122 17.1304 23.7682 16.9584 23.6804C16.7866 23.5927 16.6361 23.5079 16.6244 23.4922C16.4751 23.2949 16.3696 23.3554 15.9556 23.8749C15.7639 24.1154 15.5961 24.3217 15.5826 24.3332C15.5694 24.3447 15.4469 24.4942 15.3104 24.6652C15.1741 24.8362 15.0344 25.0054 15.0001 25.0414C14.9656 25.0774 14.8719 25.1947 14.7919 25.3022C14.5934 25.5677 14.6056 25.5724 14.2294 25.0832C14.1146 24.9344 13.9929 24.7839 13.9584 24.7492C13.9241 24.7144 13.7929 24.5549 13.6671 24.3949C13.5411 24.2349 13.4099 24.0724 13.3754 24.0337C13.3409 23.9949 13.2189 23.8417 13.1044 23.6929C12.9896 23.5442 12.8716 23.4122 12.8419 23.3994C12.7956 23.3794 12.3941 23.5559 12.3334 23.6229C12.3221 23.6354 12.2094 23.6999 12.0834 23.7662C11.9574 23.8324 11.7136 23.9624 11.5419 24.0552C11.3699 24.1482 11.1544 24.2617 11.0626 24.3074C10.9709 24.3534 10.8866 24.4014 10.8751 24.4142C10.8636 24.4269 10.7561 24.4877 10.6364 24.5494L10.4186 24.6612L10.3709 24.4869C10.3444 24.3909 10.2996 24.2374 10.2711 24.1457C10.2136 23.9614 10.1474 23.7354 9.95915 23.0832C9.88965 22.8427 9.8064 22.5614 9.77415 22.4582C9.7419 22.3552 9.70365 22.2174 9.6894 22.1524C9.6719 22.0727 9.6439 22.0414 9.60415 22.0567C9.5714 22.0692 9.3989 22.0904 9.2204 22.1037C9.0419 22.1172 8.65215 22.1544 8.3544 22.1869C7.3544 22.2957 6.8689 22.3409 6.8549 22.3267C6.84715 22.3189 6.86815 22.0687 6.9014 21.7707C7.14615 19.5879 7.1519 19.4999 7.0509 19.4999C7.00815 19.4999 6.8904 19.4739 6.7889 19.4424C6.6874 19.4107 6.4919 19.3514 6.3544 19.3104C6.2169 19.2697 6.00115 19.2037 5.87515 19.1639C5.74915 19.1244 5.5334 19.0592 5.3959 19.0189C5.2584 18.9789 5.0754 18.9207 4.9889 18.8897C4.9024 18.8587 4.79815 18.8332 4.75715 18.8332C4.60565 18.8332 4.53665 18.7409 4.6014 18.6249C4.6334 18.5677 4.7094 18.4269 4.7704 18.3124C4.83115 18.1979 4.92365 18.0292 4.9759 17.9374C5.0279 17.8457 5.1554 17.6114 5.25915 17.4167C5.61365 16.7507 5.66665 16.6544 5.70515 16.6082C5.8399 16.4459 5.80515 16.3472 5.5349 16.1249C5.38965 16.0057 5.22415 15.8679 5.1669 15.8189C5.10965 15.7697 4.9314 15.6277 4.7709 15.5032C4.61065 15.3784 4.4549 15.2522 4.4249 15.2222C4.3949 15.1924 4.2544 15.0797 4.1124 14.9719C3.70415 14.6617 3.6349 14.5849 3.7114 14.5272C3.9569 14.3417 4.32015 14.0579 4.3579 14.0222C4.38265 13.9984 4.48415 13.9134 4.5834 13.8332C4.68265 13.7529 4.78415 13.6684 4.80915 13.6452C4.8339 13.6219 4.93865 13.5377 5.0419 13.4579C5.1449 13.3784 5.2669 13.2784 5.31265 13.2362C5.3584 13.1937 5.4754 13.1017 5.5724 13.0312C5.8059 12.8622 5.81815 12.7994 5.6704 12.5352C5.6019 12.4127 5.4984 12.2187 5.44015 12.1042C5.38215 11.9894 5.24015 11.7269 5.12465 11.5207C5.0094 11.3144 4.88615 11.0894 4.85115 11.0207C4.8159 10.9519 4.73315 10.7937 4.66715 10.6687C4.53065 10.4104 4.53365 10.3914 4.7194 10.3547C4.79365 10.3399 4.93865 10.3012 5.0419 10.2684C5.1449 10.2357 5.42615 10.1522 5.6669 10.0829C5.9074 10.0139 6.2169 9.92168 6.3544 9.87818C6.4919 9.83468 6.7219 9.76443 6.86565 9.72243L7.12715 9.64568L7.1039 9.35418C7.07565 9.00318 6.9764 8.04118 6.8974 7.35443C6.86565 7.07968 6.8429 6.85193 6.84715 6.84843C6.8579 6.83868 7.55415 6.90868 8.3544 6.99943C8.7439 7.04393 9.19815 7.09018 9.3639 7.10268L9.66515 7.12543L9.69065 7.01068C9.7049 6.94743 9.7404 6.82068 9.76965 6.72918C9.7989 6.63743 9.85265 6.45918 9.88915 6.33318C10.0126 5.90593 10.2121 5.22993 10.2704 5.04168C10.3021 4.93843 10.3401 4.79343 10.3549 4.71918C10.3924 4.52968 10.4244 4.52393 10.6746 4.66243C10.7964 4.72993 11.0366 4.85593 11.2084 4.94268C11.3804 5.02943 11.5469 5.11993 11.5786 5.14393C11.6504 5.19818 12.2799 5.54118 12.5739 5.68643C12.8311 5.81343 12.8481 5.80743 13.0891 5.49993C13.1879 5.37393 13.2926 5.25568 13.3219 5.23743C13.3511 5.21918 13.3751 5.17693 13.3751 5.14368C13.3751 5.11043 13.3901 5.08318 13.4081 5.08318C13.4264 5.08318 13.5094 4.99418 13.5924 4.88543C13.6754 4.77643 13.7919 4.63118 13.8514 4.56243C13.9109 4.49368 14.0954 4.26518 14.2611 4.05468C14.6254 3.59218 14.5699 3.59818 14.8799 3.98943ZM69.1864 6.51043C69.1066 6.60143 69.1039 6.68493 69.0929 9.32343L69.0816 12.0429L68.8639 11.8799C68.6334 11.7077 68.1059 11.4427 67.8959 11.3942C67.8271 11.3782 67.6866 11.3409 67.5834 11.3112C67.1374 11.1829 66.4356 11.1142 65.7856 11.1352C65.0766 11.1582 64.7109 11.2217 64.1044 11.4272C63.4904 11.6352 62.6301 12.2264 62.3264 12.6494C62.2536 12.7507 62.1789 12.8332 62.1596 12.8332C62.1406 12.8332 62.1251 12.8614 62.1251 12.8957C62.1251 12.9302 62.1111 12.9584 62.0939 12.9584C62.0649 12.9587 61.9856 13.0774 61.8431 13.3332C61.7566 13.4887 61.4726 14.1722 61.4449 14.2917C61.4314 14.3489 61.3824 14.5364 61.3356 14.7082C61.0111 15.9034 61.0451 18.3682 61.4004 19.3972C61.4324 19.4897 61.4591 19.5927 61.4599 19.6264C61.4606 19.6599 61.4976 19.7624 61.5419 19.8542C61.5861 19.9457 61.6229 20.0344 61.6236 20.0512C61.6284 20.1512 62.0439 20.9159 62.0939 20.9164C62.1111 20.9164 62.1251 20.9382 62.1251 20.9644C62.1251 21.2797 63.7004 22.4999 64.1071 22.4999C64.1429 22.4999 64.2057 22.5177 64.2461 22.5394C64.6454 22.7532 66.2361 22.8234 67.1044 22.6659C67.9481 22.5127 68.3346 22.3634 68.7976 22.0119L69.0744 21.8017L69.0909 22.0572C69.1199 22.5072 69.1016 22.4999 70.2176 22.4999C71.1111 22.4999 71.1716 22.4949 71.2501 22.4167C71.3329 22.3339 71.3334 22.2777 71.3334 14.3749V6.41668H70.3011C69.2826 6.41668 69.2676 6.41793 69.1864 6.51043ZM84.5824 6.54268C84.4464 6.67868 84.4759 20.3157 84.6131 20.7754C85.0184 22.1347 85.8379 22.6249 87.7051 22.6249C88.6781 22.6249 88.6009 22.7109 88.6154 21.6102C88.6299 20.5052 88.6656 20.5692 88.0199 20.5399C87.4436 20.5137 87.2151 20.4527 87.0249 20.2737C86.7296 19.9962 86.7501 20.5289 86.7501 13.1242V6.45818H85.7084C84.7176 6.45818 84.6627 6.46243 84.5824 6.54268ZM41.5134 7.03368C41.3266 7.10968 41.0419 7.33868 41.0419 7.41293C41.0419 7.43793 41.0254 7.45818 41.0051 7.45818C40.9589 7.45818 40.7526 7.88568 40.5629 8.37493C40.5229 8.47793 40.4746 8.59993 40.4556 8.64568C40.4369 8.69168 40.3809 8.83218 40.3314 8.95818C40.2819 9.08418 40.2256 9.22493 40.2064 9.27068C40.1871 9.31668 40.1306 9.45718 40.0811 9.58318C40.0316 9.70918 39.9254 9.97168 39.8446 10.1667C39.7641 10.3614 39.6829 10.5582 39.6639 10.6042C39.6451 10.6499 39.5891 10.7907 39.5396 10.9167C39.4904 11.0427 39.4341 11.1832 39.4146 11.2292C39.3954 11.2749 39.3396 11.4157 39.2909 11.5417C39.2421 11.6677 39.1781 11.8269 39.1486 11.8957C39.1006 12.0077 38.9636 12.3377 38.8719 12.5624C38.8531 12.6082 38.7971 12.7489 38.7474 12.8749C38.6976 13.0009 38.6309 13.1632 38.5994 13.2354C38.5676 13.3077 38.5419 13.3857 38.5419 13.4092C38.5419 13.4324 38.5141 13.5047 38.4804 13.5694C38.4194 13.6864 38.3856 13.7664 38.2111 14.2082C38.1614 14.3342 38.1039 14.4749 38.0836 14.5207C38.0336 14.6332 37.7609 15.3039 37.6601 15.5624C37.6156 15.6769 37.5634 15.8082 37.5446 15.8542C37.5256 15.8999 37.4781 16.0217 37.4389 16.1249C37.3996 16.2279 37.3431 16.3687 37.3136 16.4374C37.2119 16.6729 36.9661 17.2707 36.8769 17.4999C36.8276 17.6259 36.7719 17.7667 36.7529 17.8124C36.7339 17.8582 36.6856 17.9802 36.6456 18.0832C36.6056 18.1864 36.5486 18.3269 36.5191 18.3957C36.4334 18.5944 36.1829 19.2079 36.0851 19.4582C36.0359 19.5842 35.9801 19.7249 35.9611 19.7707C35.9424 19.8167 35.8941 19.9384 35.8541 20.0417C35.8141 20.1447 35.7574 20.2854 35.7279 20.3542C35.6986 20.4229 35.6424 20.5634 35.6031 20.6667C35.5639 20.7697 35.4986 20.9292 35.4581 21.0207C35.4176 21.1124 35.3241 21.3374 35.2504 21.5207C35.1769 21.7042 35.0879 21.9237 35.0529 22.0084C35.0179 22.0934 34.9869 22.2342 34.9841 22.3209L34.9794 22.4792L36.0001 22.4909C36.5616 22.4972 37.0599 22.4929 37.1076 22.4814C37.2089 22.4567 37.2836 22.3127 37.6059 21.5207C37.6899 21.3144 37.7744 21.1082 37.7939 21.0624C37.8131 21.0167 37.8694 20.8759 37.9189 20.7499C37.9684 20.6239 38.0246 20.4832 38.0441 20.4374C38.0639 20.3917 38.1284 20.2322 38.1876 20.0832C38.2469 19.9342 38.3124 19.7749 38.3326 19.7292C38.4966 19.3619 38.6669 18.9339 38.6669 18.8882C38.6669 18.8424 39.2284 18.8347 41.8779 18.8434L45.0886 18.8542L45.1449 18.9582C45.1756 19.0157 45.2699 19.2312 45.3544 19.4374C45.4389 19.6437 45.5321 19.8687 45.5614 19.9374C45.5906 20.0062 45.6474 20.1467 45.6874 20.2499C45.8051 20.5534 45.8219 20.5949 45.9074 20.7917C45.9524 20.8947 46.0309 21.0822 46.0821 21.2082C46.1336 21.3342 46.1994 21.4937 46.2284 21.5624C46.2574 21.6312 46.3431 21.8374 46.4189 22.0207C46.6356 22.5462 46.5116 22.5029 47.7676 22.4902C49.0759 22.4769 49.0274 22.5359 48.5631 21.5207C48.5316 21.4519 48.4391 21.2249 48.3574 21.0162C48.2756 20.8072 48.1701 20.5447 48.1226 20.4327C48.0124 20.1722 47.9844 20.1034 47.8956 19.8749C47.8556 19.7717 47.7989 19.6312 47.7696 19.5624C47.7401 19.4937 47.6841 19.3529 47.6449 19.2499C47.6056 19.1467 47.5579 19.0249 47.5386 18.9792C47.5196 18.9332 47.4544 18.7739 47.3939 18.6249C47.3334 18.4759 47.2601 18.2979 47.2309 18.2292C47.2019 18.1604 47.1451 18.0197 47.1046 17.9167C47.0644 17.8134 47.0074 17.6729 46.9779 17.6042C46.9486 17.5354 46.8924 17.3947 46.8531 17.2917C46.8139 17.1884 46.7664 17.0667 46.7474 17.0207C46.7286 16.9749 46.6449 16.7687 46.5614 16.5624C46.3706 16.0917 46.2536 15.8062 46.1859 15.6457C46.1566 15.5769 46.1006 15.4364 46.0611 15.3332C46.0219 15.2302 45.9639 15.0849 45.9324 15.0104C45.9009 14.9359 45.8494 14.8139 45.8179 14.7394C45.7864 14.6649 45.7281 14.5197 45.6884 14.4167C45.6044 14.1979 45.4784 13.8902 45.3646 13.6249C45.2746 13.4147 45.2491 13.3512 45.1471 13.0832C45.1079 12.9802 45.0516 12.8394 45.0224 12.7707C44.9929 12.7019 44.9406 12.5707 44.9061 12.4792C44.8411 12.3072 44.5766 11.6584 44.4811 11.4374C44.4516 11.3687 44.3951 11.2282 44.3556 11.1249C44.3164 11.0217 44.2601 10.8812 44.2306 10.8124C44.2014 10.7437 44.1441 10.6029 44.1039 10.4999C44.0636 10.3967 44.0071 10.2562 43.9786 10.1874C43.9501 10.1187 43.8759 9.93243 43.8134 9.77368C43.7509 9.61493 43.6849 9.45543 43.6669 9.41943C43.6486 9.38343 43.6014 9.26968 43.5616 9.16668C43.5221 9.06343 43.4656 8.92293 43.4361 8.85418C43.4069 8.78543 43.3506 8.64468 43.3114 8.54168C43.2721 8.43843 43.2244 8.31668 43.2054 8.27068C43.1861 8.22493 43.1209 8.06593 43.0599 7.91743C42.7369 7.12893 42.1311 6.78268 41.5134 7.03368ZM42.0146 11.1979C42.0569 11.3067 42.1166 11.4519 42.1474 11.5207C42.1784 11.5894 42.2904 11.8614 42.3966 12.1249C42.5031 12.3884 42.6649 12.7822 42.7564 12.9999C42.9671 13.5019 42.9629 13.4912 43.1441 13.9374C43.3594 14.4674 43.6129 15.0804 43.7341 15.3644C43.8709 15.6852 43.9104 15.7812 43.9784 15.9582C44.0179 16.0614 44.0694 16.1819 44.0929 16.2262C44.1161 16.2704 44.1499 16.3549 44.1676 16.4137C44.1854 16.4727 44.2131 16.5537 44.2294 16.5937C44.2574 16.6627 44.1311 16.6667 41.9211 16.6667C39.4106 16.6667 39.5089 16.6752 39.6236 16.4682C39.6456 16.4284 39.7321 16.2269 39.8159 16.0207C39.8996 15.8144 40.0579 15.4302 40.1676 15.1667C40.2774 14.9029 40.4356 14.5187 40.5194 14.3124C40.6031 14.1062 40.6869 13.8999 40.7059 13.8542C40.7246 13.8082 40.7731 13.6864 40.8131 13.5832C40.8534 13.4802 40.9244 13.3114 40.9711 13.2082C41.0179 13.1052 41.0706 12.9832 41.0884 12.9374C41.1396 12.8044 41.4201 12.1172 41.4836 11.9687C41.6091 11.6759 41.6591 11.5552 41.7291 11.3749C41.9011 10.9312 41.9089 10.9264 42.0146 11.1979ZM93.6044 11.1082C93.0674 11.1494 92.1376 11.3782 91.6459 11.5902C91.2856 11.7454 90.8689 11.9537 90.8334 11.9959C90.8219 12.0097 90.7631 12.0464 90.7029 12.0774C90.5309 12.1659 90.3024 12.3859 90.2706 12.4937C90.2424 12.5897 90.3524 12.9577 90.4099 12.9587C90.4251 12.9589 90.4749 13.0387 90.5204 13.1359C90.5659 13.2329 90.6146 13.3219 90.6289 13.3332C90.6432 13.3447 90.7334 13.4982 90.8296 13.6742C91.0804 14.1329 91.1831 14.1472 91.7211 13.7984C92.0036 13.6154 92.1019 13.5634 92.4584 13.4094C93.0064 13.1722 93.5024 13.0859 94.3126 13.0864C94.6794 13.0867 95.0544 13.1029 95.1459 13.1224C95.2376 13.1422 95.4106 13.1782 95.5304 13.2027C96.4499 13.3912 97.0386 14.1654 96.9924 15.1249L96.9794 15.3957L95.0209 15.4202C92.6271 15.4502 92.3034 15.4999 91.2986 15.9952C89.2329 17.0127 88.9216 20.3212 90.7446 21.8817C90.8736 21.9922 90.9924 22.0827 91.0084 22.0829C91.0244 22.0832 91.1209 22.1394 91.2229 22.2082C91.3246 22.2769 91.4221 22.3332 91.4391 22.3332C91.4561 22.3332 91.5471 22.3684 91.6414 22.4112C92.6331 22.8629 94.5489 22.8772 95.6044 22.4407C96.0069 22.2742 96.5834 21.9377 96.5834 21.8692C96.5834 21.8494 96.6036 21.8332 96.6281 21.8332C96.6529 21.8332 96.7402 21.7582 96.8226 21.6667C96.9854 21.4852 97.0419 21.4607 97.0419 21.5717C97.0419 22.3872 97.5084 22.6269 99.0939 22.6257L100 22.6249V21.7759C100 20.8017 100.015 20.8407 99.6256 20.7947C99.1757 20.7417 99.2122 21.0219 99.1946 17.4792C99.1779 14.1564 99.1604 13.9274 98.8639 13.1667C98.2496 11.5914 96.4556 10.8892 93.6044 11.1082ZM77.3751 11.1447C77.3406 11.1532 77.1626 11.1812 76.9794 11.2072C76.2884 11.3052 75.3811 11.6227 75.1219 11.8572C75.0856 11.8899 75.0421 11.9167 75.0249 11.9167C74.9801 11.9167 74.4969 12.2924 74.3826 12.4162C74.3294 12.4737 74.2064 12.6052 74.1091 12.7082C73.8579 12.9747 73.6574 13.2947 73.3519 13.9167C72.6684 15.3077 72.6026 18.2092 73.2204 19.7292C73.4321 20.2502 73.8016 20.9167 73.8786 20.9167C73.8997 20.9167 73.9169 20.9377 73.9169 20.9637C73.9169 21.0249 74.6001 21.7082 74.6614 21.7082C74.6874 21.7082 74.7084 21.7247 74.7084 21.7447C74.7084 21.8647 75.7721 22.3827 76.3751 22.5567C77.3146 22.8274 78.7971 22.8259 79.7919 22.5534C80.3466 22.4012 81.0411 22.1262 81.1594 22.0117C81.1896 21.9822 81.2314 21.9582 81.2519 21.9582C81.3609 21.9582 81.9914 21.4717 82.3646 21.0994C82.9434 20.5224 82.9459 20.4794 82.4276 20.0142C82.2274 19.8344 82.0146 19.6407 81.9549 19.5832C81.4899 19.1377 81.4156 19.1384 80.9581 19.5929C79.9081 20.6364 78.2169 20.9649 76.7724 20.4064C76.5899 20.3357 76.4211 20.2627 76.3974 20.2437C76.3736 20.2249 76.2954 20.1624 76.2234 20.1047C76.1511 20.0472 76.0809 19.9999 76.0669 19.9999C75.9604 19.9999 75.4924 19.3827 75.3544 19.0602C75.2396 18.7917 75.0804 18.2347 75.1024 18.1777C75.1184 18.1357 75.8911 18.1249 78.9021 18.1249C81.7141 18.1249 82.7166 18.1122 82.8184 18.0754C83.0046 18.0082 83.0129 17.9477 82.9811 16.8824C82.9464 15.7239 82.8704 15.1772 82.6359 14.3957C82.5324 14.0502 82.3029 13.5477 82.1379 13.3047C82.0851 13.2267 82.0419 13.1449 82.0419 13.1232C82.0419 13.1012 82.0244 13.0832 82.0029 13.0832C81.9816 13.0832 81.9524 13.0467 81.9384 13.0019C81.8031 12.5762 80.5434 11.6764 79.6946 11.3994C79.1171 11.2109 77.7301 11.0587 77.3751 11.1447ZM54.7709 11.2187C53.8921 11.3377 53.0014 11.7914 52.4826 12.3844L52.2919 12.6027V12.0732V11.5437L52.1644 11.4779C51.9599 11.3722 50.2949 11.4047 50.1711 11.5167L50.0834 11.5962V16.9792C50.0834 22.1412 50.0866 22.3649 50.1596 22.4309C50.2714 22.5319 52.1256 22.5352 52.2264 22.4344C52.2846 22.3762 52.2919 22.0207 52.2919 19.1502C52.2919 15.3572 52.2924 15.3507 52.6596 14.5832C53.4641 12.9019 56.3206 12.8097 57.1229 14.4392C57.4846 15.1739 57.4971 15.3312 57.4989 19.1262C57.4999 21.9432 57.5076 22.3254 57.5649 22.4074C57.6289 22.4987 57.6434 22.4999 58.6171 22.4987L59.6044 22.4974L59.6786 22.3949C59.7761 22.2612 59.7676 15.1644 59.6694 14.6457C59.5341 13.9304 59.2991 13.3174 58.9724 12.8274C58.7869 12.5492 58.3231 12.0417 58.2544 12.0417C58.2341 12.0417 58.2066 12.0134 58.1934 11.9792C58.1801 11.9447 58.1406 11.9167 58.1056 11.9167C58.0706 11.9167 58.0419 11.8992 58.0419 11.8777C58.0419 11.8564 58.0044 11.8269 57.9586 11.8124C57.9131 11.7979 57.8516 11.7639 57.8226 11.7367C57.7264 11.6474 57.3956 11.5012 56.9169 11.3367C56.4856 11.1884 55.4246 11.1302 54.7709 11.2187ZM67.1251 13.1782C67.2741 13.2324 67.4521 13.3067 67.5209 13.3432C67.5896 13.3799 67.7054 13.4409 67.7781 13.4789C68.2109 13.7052 68.7757 14.4454 69.0101 15.0939C69.1529 15.4882 69.1559 18.3219 69.0144 18.7524C68.2239 21.1544 65.1341 21.5849 63.8021 19.4782C63.7734 19.4329 63.7309 19.3489 63.7074 19.2917C63.6841 19.2344 63.6484 19.1499 63.6281 19.1042C63.4106 18.6132 63.3339 18.0507 63.3351 16.9582C63.3371 15.3824 63.5691 14.6142 64.2709 13.8602C64.9352 13.1467 66.2051 12.8432 67.1251 13.1782ZM78.5209 13.1864C79.8589 13.4002 80.6491 14.2762 80.7901 15.7019C80.8559 16.3654 81.2126 16.2939 77.9011 16.2814L75.0626 16.2707L75.0761 15.9374C75.0964 15.4424 75.3526 14.6112 75.5704 14.3337C76.3181 13.3822 77.3167 12.9939 78.5209 13.1864ZM96.9341 17.2334C97.0344 17.2719 97.0316 18.8862 96.9309 19.1874C96.7731 19.6602 96.4389 20.1184 96.1044 20.3212C95.8344 20.4849 95.4694 20.6279 95.0766 20.7237C94.4764 20.8704 92.9734 20.7767 92.7731 20.5804C92.7514 20.5589 92.7084 20.5417 92.6776 20.5417C92.5601 20.5417 92.0661 20.1337 91.9964 19.9792C91.9756 19.9332 91.9421 19.8677 91.9219 19.8332C91.7877 19.6047 91.7501 19.4332 91.7501 19.0489C91.7501 17.8882 92.4474 17.3364 94.0209 17.2517C94.7221 17.2139 96.8486 17.2007 96.9341 17.2334Z" fill="#697489"/>
</g>
<defs>
<clipPath id="clip0_3_262">
<rect width="100" height="29.1812" fill="white"/>
</clipPath>
</defs>
</svg>
