<svg width="91" height="28" viewBox="0 0 91 28" fill="none" xmlns="http://www.w3.org/2000/svg">
<path d="M7.62582 21.9727C5.44603 24.1525 1.75431 24.1438 0.723305 21.2386C0.52145 20.6699 0.360059 20.085 0.241357 19.4883C-0.243302 17.0517 0.00544237 14.5262 0.956138 12.231C1.90683 9.93583 3.51677 7.97411 5.58238 6.59392C7.64801 5.21372 10.0765 4.47705 12.5608 4.47705C15.0451 4.47705 17.4736 5.21372 19.5391 6.59392C21.6048 7.97411 23.2147 9.93583 24.1654 12.231C25.1161 14.5262 25.3648 17.0517 24.8802 19.4883C24.7615 20.085 24.6001 20.6699 24.3982 21.2386C23.3672 24.1438 19.6755 24.1525 17.4957 21.9727L14.1309 18.6079C13.8094 18.2864 13.8426 17.7562 13.9313 17.3104C13.9852 17.0393 13.9575 16.7584 13.8517 16.503C13.7459 16.2477 13.5669 16.0294 13.3371 15.8759C13.1073 15.7224 12.8371 15.6405 12.5608 15.6405C12.2844 15.6405 12.0143 15.7224 11.7845 15.8759C11.5546 16.0294 11.3755 16.2477 11.2698 16.503C11.164 16.7584 11.1363 17.0393 11.1903 17.3104C11.279 17.7562 11.3121 18.2864 10.9906 18.6079L7.62582 21.9727Z" fill="white"/>
<path d="M35.6013 20L39.1544 8.46227C39.6136 7.00508 40.8112 6.30643 42.0688 6.30643C43.3464 6.30643 44.544 7.00508 45.0032 8.46227L48.5563 20H45.582L44.8035 17.2453L39.3541 17.2653L38.5756 20H35.6013ZM41.6496 9.32061L40.1126 14.6503H44.045L42.5279 9.32061C42.4481 9.04115 42.3283 8.92138 42.0888 8.92138C41.8692 8.92138 41.7295 9.04115 41.6496 9.32061ZM53.7706 19.98L50.8562 20V6.56593H55.5871C59.3997 6.56593 61.7352 8.3425 61.7352 11.4565C61.7352 14.6902 59.4397 16.4469 55.7468 16.4469H53.7706V19.98ZM55.6669 9.26073H53.7706V13.7521H55.6669C57.5833 13.7521 58.741 13.0135 58.741 11.4565C58.741 9.97934 57.5833 9.26073 55.6669 9.26073ZM73.6939 20H66.4678C64.6114 20 63.8928 19.0418 63.8928 17.5048V9.08107C63.8928 7.54404 64.6114 6.56593 66.4678 6.56593H73.5741V9.18088H66.8072V11.9755H73.1549V14.5904H66.8072V17.385H73.6939V20ZM78.5051 20H75.0118L78.2056 14.9098C78.6847 14.1513 78.8843 13.6523 78.8843 13.1732C78.8843 12.6741 78.6647 12.1951 78.2056 11.4565L75.1515 6.56593H78.5649L80.9404 10.4983C81.2198 10.9774 81.4194 11.4565 81.5592 11.9555H82.6371C82.7569 11.4565 82.9764 10.9774 83.2559 10.4983L85.6313 6.56593H89.0447L85.9706 11.4565C85.5115 12.1951 85.3119 12.6741 85.3119 13.1732C85.3119 13.6523 85.4916 14.1513 85.9706 14.9098L89.1645 20H85.6912L83.2559 16.0676C82.9764 15.5885 82.7768 15.1094 82.6371 14.6304H81.5592C81.4194 15.1094 81.1999 15.5885 80.9204 16.0676L78.5051 20Z" fill="white"/>
</svg>
