<svg width="126" height="31" viewBox="0 0 126 31" fill="none" xmlns="http://www.w3.org/2000/svg">
<g clip-path="url(#clip0_3_371)">
<path d="M70.4382 0.431396H68.5676C68.1916 0.431396 67.8868 0.73621 67.8868 1.11222V22.4618C67.8868 22.8378 68.1916 23.1426 68.5676 23.1426H70.4382C70.8142 23.1426 71.119 22.8378 71.119 22.4618V1.11222C71.119 0.73621 70.8142 0.431396 70.4382 0.431396Z" fill="#A1B0AE"/>
<path d="M70.4382 0.431396H68.5676C68.1916 0.431396 67.8868 0.73621 67.8868 1.11222V22.4618C67.8868 22.8378 68.1916 23.1426 68.5676 23.1426H70.4382C70.8142 23.1426 71.119 22.8378 71.119 22.4618V1.11222C71.119 0.73621 70.8142 0.431396 70.4382 0.431396Z" fill="#A1B0AE"/>
<path d="M80.5131 7.97534C76.1118 7.97534 72.914 11.211 72.914 15.6672C72.914 20.1785 76.1118 23.452 80.5131 23.452C83.4014 23.452 85.798 22.1901 87.0875 19.9929C87.1362 19.9073 87.1661 19.8123 87.175 19.7143C87.1839 19.6162 87.1716 19.5174 87.139 19.4245C87.1064 19.3316 87.0542 19.2467 86.986 19.1757C86.9178 19.1047 86.8351 19.0492 86.7436 19.0129L86.0559 18.7619C85.7602 18.6587 85.4645 18.5521 85.186 18.4421C85.0468 18.3819 84.8913 18.3709 84.745 18.4109C84.5988 18.4509 84.4705 18.5395 84.3814 18.6622C83.9498 19.255 83.3791 19.7325 82.7196 20.0527C82.06 20.3729 81.3317 20.5259 80.599 20.4983C78.4156 20.4983 76.7479 19.2742 76.2459 17.304C76.2376 17.2671 76.2376 17.2288 76.2459 17.1919C76.2542 17.1551 76.2707 17.1205 76.294 17.0908C76.3181 17.0598 76.3488 17.0348 76.384 17.0175C76.4191 17.0002 76.4577 16.9912 76.4969 16.9911H87.2078C87.3855 16.9912 87.5564 16.9225 87.6846 16.7995C87.8128 16.6764 87.8884 16.5084 87.8955 16.3309C87.8955 16.1039 87.8955 15.8701 87.8955 15.6672C87.8955 11.1388 84.8593 7.97534 80.5131 7.97534ZM84.543 14.2747C84.5195 14.3062 84.4889 14.3317 84.4536 14.349C84.4183 14.3664 84.3794 14.375 84.3401 14.3744H76.5038C76.4645 14.375 76.4256 14.3664 76.3903 14.349C76.355 14.3317 76.3244 14.3062 76.3009 14.2747C76.2776 14.2449 76.2611 14.2104 76.2528 14.1735C76.2445 14.1366 76.2445 14.0983 76.2528 14.0615C76.7479 12.129 78.3778 10.9324 80.5131 10.9324C82.5762 10.9324 84.1132 12.1015 84.5911 14.0649C84.5996 14.1012 84.5997 14.139 84.5914 14.1754C84.5831 14.2117 84.5665 14.2457 84.543 14.2747Z" fill="#A1B0AE"/>
<path d="M80.5131 7.97534C76.1118 7.97534 72.914 11.211 72.914 15.6672C72.914 20.1785 76.1118 23.452 80.5131 23.452C83.4014 23.452 85.798 22.1901 87.0875 19.9929C87.1362 19.9073 87.1661 19.8123 87.175 19.7143C87.1839 19.6162 87.1716 19.5174 87.139 19.4245C87.1064 19.3316 87.0542 19.2467 86.986 19.1757C86.9178 19.1047 86.8351 19.0492 86.7436 19.0129L86.0559 18.7619C85.7602 18.6587 85.4645 18.5521 85.186 18.4421C85.0468 18.3819 84.8913 18.3709 84.745 18.4109C84.5988 18.4509 84.4705 18.5395 84.3814 18.6622C83.9498 19.255 83.3791 19.7325 82.7196 20.0527C82.06 20.3729 81.3317 20.5259 80.599 20.4983C78.4156 20.4983 76.7479 19.2742 76.2459 17.304C76.2376 17.2671 76.2376 17.2288 76.2459 17.1919C76.2542 17.1551 76.2707 17.1205 76.294 17.0908C76.3181 17.0598 76.3488 17.0348 76.384 17.0175C76.4191 17.0002 76.4577 16.9912 76.4969 16.9911H87.2078C87.3855 16.9912 87.5564 16.9225 87.6846 16.7995C87.8128 16.6764 87.8884 16.5084 87.8955 16.3309C87.8955 16.1039 87.8955 15.8701 87.8955 15.6672C87.8955 11.1388 84.8593 7.97534 80.5131 7.97534ZM84.543 14.2747C84.5195 14.3062 84.4889 14.3317 84.4536 14.349C84.4183 14.3664 84.3794 14.375 84.3401 14.3744H76.5038C76.4645 14.375 76.4256 14.3664 76.3903 14.349C76.355 14.3317 76.3244 14.3062 76.3009 14.2747C76.2776 14.2449 76.2611 14.2104 76.2528 14.1735C76.2445 14.1366 76.2445 14.0983 76.2528 14.0615C76.7479 12.129 78.3778 10.9324 80.5131 10.9324C82.5762 10.9324 84.1132 12.1015 84.5911 14.0649C84.5996 14.1012 84.5997 14.139 84.5914 14.1754C84.5831 14.2117 84.5665 14.2457 84.543 14.2747Z" fill="#A1B0AE"/>
<path d="M104.387 8.28497H102.523C102.343 8.28491 102.171 8.355 102.043 8.48027C101.914 8.60555 101.84 8.77608 101.835 8.95547V9.37153C101.836 9.41982 101.823 9.4673 101.796 9.50777C101.77 9.54824 101.732 9.57985 101.687 9.59847C101.644 9.61912 101.595 9.62591 101.548 9.61791C101.501 9.60992 101.457 9.58752 101.423 9.55377C100.189 8.49107 98.6046 7.92381 96.9767 7.96175C92.6098 7.96175 89.4395 11.2111 89.4395 15.6846C89.4395 20.1581 92.6957 23.4693 96.9938 23.4693C98.6293 23.4819 100.212 22.8891 101.436 21.8051C101.472 21.7723 101.516 21.7505 101.564 21.7424C101.611 21.7343 101.66 21.7404 101.704 21.7597C101.748 21.7791 101.786 21.811 101.812 21.8514C101.839 21.8918 101.853 21.9391 101.852 21.9873V22.4722C101.852 22.6546 101.925 22.8295 102.054 22.9584C102.183 23.0874 102.358 23.1599 102.54 23.1599H104.404C104.583 23.1554 104.754 23.081 104.879 22.9525C105.004 22.824 105.074 22.6516 105.074 22.4722V8.95547C105.07 8.77608 104.995 8.60555 104.867 8.48027C104.738 8.355 104.566 8.28491 104.387 8.28497ZM97.2414 20.2819C94.6832 20.2819 92.7508 18.2978 92.7508 15.6674C92.7508 13.037 94.6385 11.1492 97.2414 11.1492C99.5177 11.1492 101.821 12.7 101.821 15.6674C101.821 18.8377 99.4489 20.2819 97.2414 20.2819Z" fill="#A1B0AE"/>
<path d="M104.387 8.28497H102.523C102.343 8.28491 102.171 8.355 102.043 8.48027C101.914 8.60555 101.84 8.77608 101.835 8.95547V9.37153C101.836 9.41982 101.823 9.4673 101.796 9.50777C101.77 9.54824 101.732 9.57985 101.687 9.59847C101.644 9.61912 101.595 9.62591 101.548 9.61791C101.501 9.60992 101.457 9.58752 101.423 9.55377C100.189 8.49107 98.6046 7.92381 96.9767 7.96175C92.6098 7.96175 89.4395 11.2111 89.4395 15.6846C89.4395 20.1581 92.6957 23.4693 96.9938 23.4693C98.6293 23.4819 100.212 22.8891 101.436 21.8051C101.472 21.7723 101.516 21.7505 101.564 21.7424C101.611 21.7343 101.66 21.7404 101.704 21.7597C101.748 21.7791 101.786 21.811 101.812 21.8514C101.839 21.8918 101.853 21.9391 101.852 21.9873V22.4722C101.852 22.6546 101.925 22.8295 102.054 22.9584C102.183 23.0874 102.358 23.1599 102.54 23.1599H104.404C104.583 23.1554 104.754 23.081 104.879 22.9525C105.004 22.824 105.074 22.6516 105.074 22.4722V8.95547C105.07 8.77608 104.995 8.60555 104.867 8.48027C104.738 8.355 104.566 8.28491 104.387 8.28497ZM97.2414 20.2819C94.6832 20.2819 92.7508 18.2978 92.7508 15.6674C92.7508 13.037 94.6385 11.1492 97.2414 11.1492C99.5177 11.1492 101.821 12.7 101.821 15.6674C101.821 18.8377 99.4489 20.2819 97.2414 20.2819Z" fill="#A1B0AE"/>
<path d="M115.376 7.9754C113.75 7.94991 112.175 8.54363 110.971 9.63619C110.935 9.66926 110.89 9.69124 110.842 9.69948C110.794 9.70771 110.744 9.70186 110.699 9.68263C110.654 9.6634 110.616 9.63159 110.588 9.59103C110.561 9.55047 110.546 9.50288 110.545 9.45395V8.9588C110.545 8.77936 110.475 8.60699 110.35 8.47851C110.224 8.35002 110.054 8.27559 109.874 8.27111H107.987C107.804 8.27111 107.629 8.34356 107.5 8.47253C107.371 8.6015 107.299 8.77642 107.299 8.9588V29.4866C107.299 29.669 107.371 29.8439 107.5 29.9729C107.629 30.1018 107.804 30.1743 107.987 30.1743H109.874C110.054 30.1698 110.224 30.0954 110.35 29.9669C110.475 29.8384 110.545 29.666 110.545 29.4866V22.056C110.544 22.0068 110.558 21.9585 110.585 21.9174C110.612 21.8763 110.651 21.8443 110.696 21.8256C110.741 21.8048 110.791 21.7983 110.84 21.8069C110.888 21.8155 110.933 21.8389 110.968 21.8738C112.187 22.9358 113.759 23.5047 115.376 23.4692C119.688 23.4692 122.82 20.2336 122.82 15.7773C122.82 11.2488 119.688 7.9754 115.376 7.9754ZM115.097 20.2817C112.852 20.2817 110.576 18.7379 110.576 15.7911C110.576 12.6002 112.921 11.1491 115.097 11.1491C117.68 11.1491 119.567 13.1022 119.567 15.7911C119.567 18.48 117.721 20.2817 115.097 20.2817Z" fill="#A1B0AE"/>
<path d="M115.376 7.9754C113.75 7.94991 112.175 8.54363 110.971 9.63619C110.935 9.66926 110.89 9.69124 110.842 9.69948C110.794 9.70771 110.744 9.70186 110.699 9.68263C110.654 9.6634 110.616 9.63159 110.588 9.59103C110.561 9.55047 110.546 9.50288 110.545 9.45395V8.9588C110.545 8.77936 110.475 8.60699 110.35 8.47851C110.224 8.35002 110.054 8.27559 109.874 8.27111H107.987C107.804 8.27111 107.629 8.34356 107.5 8.47253C107.371 8.6015 107.299 8.77642 107.299 8.9588V29.4866C107.299 29.669 107.371 29.8439 107.5 29.9729C107.629 30.1018 107.804 30.1743 107.987 30.1743H109.874C110.054 30.1698 110.224 30.0954 110.35 29.9669C110.475 29.8384 110.545 29.666 110.545 29.4866V22.056C110.544 22.0068 110.558 21.9585 110.585 21.9174C110.612 21.8763 110.651 21.8443 110.696 21.8256C110.741 21.8048 110.791 21.7983 110.84 21.8069C110.888 21.8155 110.933 21.8389 110.968 21.8738C112.187 22.9358 113.759 23.5047 115.376 23.4692C119.688 23.4692 122.82 20.2336 122.82 15.7773C122.82 11.2488 119.688 7.9754 115.376 7.9754ZM115.097 20.2817C112.852 20.2817 110.576 18.7379 110.576 15.7911C110.576 12.6002 112.921 11.1491 115.097 11.1491C117.68 11.1491 119.567 13.1022 119.567 15.7911C119.567 18.48 117.721 20.2817 115.097 20.2817Z" fill="#A1B0AE"/>
<path d="M46.1763 10.9258C46.0628 10.7745 45.9459 10.6301 45.8325 10.4856C45.8015 10.4513 45.7706 10.4134 45.7362 10.379C45.5219 10.1353 45.2922 9.90559 45.0485 9.69135C44.9415 9.58781 44.7985 9.52986 44.6496 9.52974C44.5636 9.52595 44.4778 9.54268 44.3995 9.57856C44.3212 9.61443 44.2525 9.66841 44.1992 9.73605L42.9372 11.5206C42.8674 11.6215 42.8313 11.7418 42.8341 11.8645C42.8346 11.9444 42.8514 12.0234 42.8833 12.0967C42.9152 12.17 42.9616 12.236 43.0198 12.2908C43.3135 12.5633 43.5701 12.8731 43.7831 13.2124C44.1317 13.7978 44.3521 14.4506 44.4296 15.1276C44.4296 15.2445 44.4502 15.358 44.4502 15.4714V15.5608C44.4506 16.1435 44.3362 16.7205 44.1135 17.2588C43.8907 17.7972 43.564 18.2864 43.152 18.6983C42.74 19.1103 42.2509 19.437 41.7125 19.6598C41.1742 19.8825 40.5972 19.997 40.0145 19.9965C39.3092 19.9936 38.6145 19.8246 37.9866 19.5032C37.3588 19.1819 36.8154 18.7171 36.4007 18.1466L31.3977 11.0908C30.4492 9.75864 29.102 8.76228 27.5504 8.2455C25.9989 7.72872 24.3233 7.71825 22.7655 8.2156C21.2076 8.71295 19.848 9.69241 18.883 11.0126C17.9179 12.3328 17.3973 13.9255 17.3961 15.5608C17.396 15.8193 17.4098 16.0775 17.4374 16.3345C17.4358 16.3505 17.4358 16.3666 17.4374 16.3826C17.4649 16.6371 17.5062 16.8915 17.5543 17.1391C17.5543 17.1391 17.5543 17.1563 17.5543 17.1666C17.8958 18.7791 18.7469 20.239 19.9819 21.3306C20.0999 21.4544 20.2586 21.5314 20.4289 21.5473C20.5416 21.5422 20.6511 21.5083 20.7468 21.4487C20.8426 21.389 20.9214 21.3058 20.9756 21.2068L22.1069 19.6079C22.1929 19.4994 22.2369 19.3634 22.2306 19.225C22.2242 19.0866 22.1681 18.9552 22.0725 18.8549C21.8676 18.657 21.6801 18.4419 21.512 18.2119C20.968 17.4349 20.6763 16.5093 20.6765 15.5608C20.6658 14.9882 20.7702 14.4193 20.9834 13.8877C21.1967 13.3561 21.5144 12.8728 21.9178 12.4662C22.3731 11.9987 22.9258 11.637 23.5366 11.4069C24.1473 11.1768 24.8012 11.0839 25.4519 11.1348C26.1026 11.1856 26.7341 11.379 27.3017 11.7012C27.8693 12.0234 28.3591 12.4665 28.7363 12.9992L33.7152 20.0309C34.3083 20.8607 35.06 21.5648 35.9269 22.1023C36.7938 22.6398 37.7586 23.0001 38.7656 23.1623C39.7727 23.3245 40.8018 23.2855 41.7937 23.0474C42.7855 22.8094 43.7203 22.377 44.544 21.7754C45.3676 21.1738 46.0639 20.4148 46.5924 19.5424C47.1208 18.67 47.4711 17.7015 47.6229 16.6929C47.7747 15.6842 47.725 14.6555 47.4767 13.6662C47.2284 12.6769 46.7864 11.7466 46.1763 10.9292V10.9258Z" fill="#A1B0AE"/>
<path d="M41.7991 8.45681C41.801 8.38028 41.7873 8.30416 41.759 8.23304C41.7307 8.16192 41.6883 8.09726 41.6343 8.04297C41.5803 7.98868 41.5159 7.94587 41.445 7.91712C41.374 7.88838 41.298 7.87429 41.2214 7.8757C40.644 7.80718 40.0612 7.79566 39.4816 7.84132L39.1377 7.87914C38.0614 8.0054 37.0237 8.35656 36.0919 8.90984C35.1601 9.46312 34.355 10.2061 33.729 11.0907L28.7397 18.1258C28.3637 18.6986 27.8545 19.1718 27.2557 19.5047C26.6568 19.8377 25.9862 20.0205 25.3012 20.0376H25.2565C25.1732 20.0422 25.092 20.0649 25.0183 20.1041C24.9447 20.1433 24.8805 20.1981 24.8302 20.2646L24.8026 20.299L23.4273 22.228C23.372 22.3025 23.3355 22.3893 23.321 22.481C23.3064 22.5726 23.3141 22.6664 23.3434 22.7545C23.3728 22.8425 23.4229 22.9222 23.4896 22.9868C23.5562 23.0513 23.6375 23.0989 23.7264 23.1254H23.7573C24.5089 23.2031 25.2649 23.2272 26.0199 23.1976C27.0951 23.068 28.1314 22.715 29.0623 22.1614C29.9931 21.6077 30.798 20.8656 31.4252 19.9826L36.38 12.9784C36.7669 12.447 37.2646 12.006 37.8387 11.686C38.4128 11.366 39.0496 11.1746 39.7051 11.1251H39.7291C39.8311 11.1247 39.9312 11.0975 40.0193 11.0462C40.1074 10.9949 40.1805 10.9213 40.2312 10.8328L41.6788 8.76971C41.7491 8.6797 41.791 8.57076 41.7991 8.45681Z" fill="#A1B0AE"/>
<path d="M14.9273 8.28499H13.0671C12.8847 8.28499 12.7098 8.35745 12.5808 8.48642C12.4518 8.61538 12.3794 8.7903 12.3794 8.97269V9.47127C12.3793 9.5202 12.3648 9.56803 12.3379 9.60887C12.3109 9.64971 12.2726 9.68178 12.2277 9.70115C12.1828 9.72051 12.1332 9.72632 12.085 9.71785C12.0368 9.70939 11.9921 9.68703 11.9565 9.65351C10.7356 8.56767 9.15462 7.9745 7.5208 7.98928C3.23988 7.97553 0.000823975 11.3212 0.000823975 15.7603C0.000823975 20.1994 3.17111 23.4694 7.53799 23.4694C9.57702 23.4694 11.4166 22.6269 12.4241 21.2825C12.3416 25.3021 10.7289 27.2517 7.50705 27.2517C6.75791 27.2471 6.02135 27.0588 5.36192 26.7033C4.70249 26.3478 4.14033 25.836 3.72471 25.2127C3.63386 25.0764 3.49603 24.9783 3.3375 24.9371C3.17897 24.8958 3.01082 24.9144 2.86509 24.9892C2.42496 25.2127 1.76133 25.5703 1.31433 25.8144C1.23122 25.8578 1.15784 25.9176 1.09871 25.9904C1.03958 26.0631 0.995943 26.1471 0.970478 26.2373C0.943489 26.3245 0.935052 26.4163 0.945712 26.5069C0.956372 26.5976 0.985892 26.6849 1.03237 26.7634C1.70632 27.8726 2.65817 28.7866 3.79375 29.415C4.92934 30.0434 6.20931 30.3644 7.50705 30.3463C12.878 30.3463 15.6013 27.1142 15.6013 20.7358V8.95894C15.5977 8.7813 15.5256 8.61192 15.4 8.48628C15.2743 8.36065 15.1049 8.28851 14.9273 8.28499ZM7.78556 20.2784C5.15856 20.2784 3.2949 18.4079 3.2949 15.7293C3.2949 13.1161 5.22733 11.1458 7.78556 11.1458C9.99307 11.1458 12.3794 12.5797 12.3794 15.7293C12.3794 18.683 10.0068 20.2784 7.78556 20.2784Z" fill="#A1B0AE"/>
<path d="M64.029 0.431396H62.1654C61.983 0.431396 61.8081 0.50385 61.6791 0.632819C61.5501 0.761787 61.4777 0.936706 61.4777 1.11909V9.33021C61.4782 9.38151 61.4635 9.43182 61.4353 9.47469C61.4071 9.51757 61.3668 9.55107 61.3195 9.5709C61.2716 9.59174 61.2187 9.59796 61.1673 9.58878C61.1159 9.5796 61.0684 9.55544 61.0307 9.51932C59.9647 8.53935 58.3452 7.97544 56.5847 7.97544C52.2522 7.97544 49.1094 11.2214 49.1094 15.6983C49.1094 20.1167 52.3382 23.4521 56.6157 23.4521C58.2369 23.4666 59.8078 22.8896 61.0341 21.8291C61.0718 21.7946 61.1187 21.7717 61.1692 21.7632C61.2196 21.7548 61.2714 21.7611 61.3184 21.7815C61.3653 21.8019 61.4053 21.8354 61.4336 21.878C61.4618 21.9206 61.4772 21.9705 61.4777 22.0217V22.4584C61.4777 22.6407 61.5501 22.8157 61.6791 22.9446C61.8081 23.0736 61.983 23.1461 62.1654 23.1461H64.029C64.2114 23.1461 64.3863 23.0736 64.5153 22.9446C64.6443 22.8157 64.7167 22.6407 64.7167 22.4584V1.11909C64.7167 0.936706 64.6443 0.761787 64.5153 0.632819C64.3863 0.50385 64.2114 0.431396 64.029 0.431396ZM61.4502 15.6673C61.4502 18.8376 59.0742 20.2784 56.8667 20.2784C54.3256 20.2784 52.3966 18.2978 52.3966 15.6673C52.3966 13.0369 54.274 11.1457 56.8667 11.1457C59.1429 11.1457 61.4502 12.6999 61.4502 15.6673Z" fill="#A1B0AE"/>
<path d="M46.173 10.9257C46.0595 10.7744 45.9426 10.63 45.8291 10.4856C45.7982 10.4512 45.7672 10.4134 45.7328 10.379C45.5186 10.1352 45.2889 9.90554 45.0451 9.69129C44.9382 9.58775 44.7952 9.52981 44.6463 9.52968C44.5611 9.52604 44.4762 9.54251 44.3986 9.57776C44.3209 9.613 44.2526 9.66603 44.1993 9.73256L42.9339 11.5206C42.8634 11.6211 42.8273 11.7417 42.8308 11.8644C42.8308 11.9449 42.8473 12.0246 42.8792 12.0985C42.9112 12.1724 42.9579 12.239 43.0164 12.2942C43.311 12.5658 43.5678 12.8758 43.7798 13.2157C44.1284 13.8012 44.3487 14.454 44.4262 15.131C44.4262 15.2445 44.4468 15.3579 44.4468 15.4748V15.5608C44.4473 16.1431 44.333 16.7198 44.1104 17.258C43.8879 17.7961 43.5615 18.2851 43.1499 18.6971C42.7383 19.109 42.2495 19.4358 41.7116 19.6587C41.1736 19.8817 40.597 19.9964 40.0146 19.9964C39.3087 19.9941 38.6133 19.8254 37.9848 19.504C37.3563 19.1826 36.8125 18.7175 36.3973 18.1465L31.3943 11.0908C30.4463 9.75711 29.0989 8.75936 27.5467 8.24164C25.9946 7.72392 24.318 7.71303 22.7592 8.21055C21.2004 8.70807 19.8402 9.68824 18.8749 11.0095C17.9097 12.3307 17.3895 13.9245 17.3894 15.5608C17.3894 15.8221 17.3894 16.08 17.4306 16.3345C17.4306 16.3345 17.4306 16.3654 17.4306 16.3826C17.4581 16.637 17.4994 16.8915 17.551 17.1391C17.551 17.1391 17.551 17.1563 17.551 17.1666C17.8925 18.7791 18.7436 20.239 19.9786 21.3306C20.0983 21.4539 20.2579 21.5306 20.429 21.5472C20.5421 21.5439 20.6523 21.5106 20.7483 21.4508C20.8444 21.391 20.9228 21.3068 20.9757 21.2068L22.1104 19.6079C22.1874 19.5095 22.2308 19.3889 22.2342 19.264C22.2343 19.1161 22.1762 18.9741 22.0726 18.8686C21.8677 18.6707 21.6802 18.4556 21.5121 18.2256C20.965 17.4446 20.671 16.5144 20.6697 15.5608C20.6596 14.9882 20.7643 14.4195 20.9775 13.888C21.1907 13.3565 21.5081 12.8731 21.911 12.4662C22.3271 12.0409 22.8234 11.7023 23.371 11.4698C23.9187 11.2373 24.5069 11.1155 25.1019 11.1114C25.8117 11.1141 26.5106 11.2858 27.1408 11.6123C27.771 11.9388 28.3144 12.4106 28.7261 12.9888L33.6981 20.0308C34.2912 20.8607 35.0429 21.5647 35.9098 22.1022C36.7767 22.6397 37.7415 23 38.7485 23.1622C39.7556 23.3245 40.7847 23.2854 41.7766 23.0474C42.7684 22.8093 43.7032 22.377 44.5269 21.7754C45.3505 21.1738 46.0468 20.4148 46.5753 19.5424C47.1038 18.67 47.454 17.7014 47.6058 16.6928C47.7576 15.6842 47.7079 14.6554 47.4596 13.6661C47.2113 12.6768 46.7693 11.7466 46.1592 10.9292L46.173 10.9257Z" fill="#A1B0AE"/>
<path d="M41.7991 8.45339C41.8 8.37682 41.7856 8.30084 41.7567 8.22992C41.7279 8.159 41.6851 8.09458 41.631 8.04043C41.5768 7.98629 41.5124 7.94352 41.4415 7.91464C41.3705 7.88576 41.2946 7.87136 41.218 7.87228C40.6406 7.80376 40.0578 7.79225 39.4781 7.8379L39.1343 7.87916C38.0573 8.00475 37.0188 8.35561 36.0864 8.90892C35.1539 9.46223 34.3484 10.2056 33.7221 11.0907L28.7363 18.1396C28.3605 18.7128 27.8514 19.1865 27.2525 19.52C26.6537 19.8536 25.983 20.0371 25.2978 20.0549H25.2531C25.1703 20.0595 25.0895 20.0822 25.0164 20.1214C24.9434 20.1606 24.8798 20.2154 24.8302 20.2818C24.8196 20.2934 24.8104 20.3061 24.8026 20.3196C24.5001 20.746 23.888 21.6125 23.4444 22.2452C23.3688 22.3439 23.3278 22.4647 23.3275 22.589C23.3307 22.7086 23.3707 22.8243 23.4421 22.9203C23.5135 23.0163 23.6128 23.0879 23.7264 23.1254H23.7608C24.5121 23.2066 25.2684 23.2307 26.0233 23.1976C27.0986 23.068 28.1349 22.715 29.0657 22.1614C29.9966 21.6077 30.8014 20.8656 31.4286 19.9826L36.3835 12.9784C36.7691 12.4459 37.2666 12.004 37.8409 11.6839C38.4153 11.3637 39.0527 11.173 39.7085 11.1251H39.7326C39.8343 11.1254 39.9342 11.0989 40.0224 11.0481C40.1105 10.9974 40.1837 10.9243 40.2346 10.8363L41.6822 8.77317C41.752 8.68054 41.7927 8.56922 41.7991 8.45339Z" fill="#A1B0AE"/>
<path d="M123.37 5.95362H122.683V7.917H122.411V5.95362H121.723V5.74731H123.374L123.37 5.95362ZM126.001 7.917H125.733V5.97426L124.983 7.917H124.808L124.061 5.97426V7.917H123.786V5.74731H124.282L124.9 7.34965L125.506 5.74731H126.001V7.917Z" fill="#A1B0AE"/>
</g>
<defs>
<clipPath id="clip0_3_371">
<rect width="126" height="29.9149" fill="white" transform="translate(0 0.431396)"/>
</clipPath>
</defs>
</svg>
