<svg width="100" height="34" viewBox="0 0 100 34" fill="none" xmlns="http://www.w3.org/2000/svg">
<g clip-path="url(#clip0_3_389)">
<path fill-rule="evenodd" clip-rule="evenodd" d="M34.1508 10.041C29.3641 10.041 25.932 13.7832 25.932 18.1504C25.932 22.5785 29.2602 26.391 34.207 26.391C38.6867 26.391 42.3555 22.9691 42.3555 18.2348C42.3555 12.8145 38.0867 10.0332 34.1523 10.0332L34.1508 10.041ZM52.0242 10.041C47.243 10.041 43.8133 13.7832 43.8133 18.1504C43.8133 22.5785 47.1414 26.391 52.0891 26.391C56.5578 26.391 60.2297 22.9691 60.2297 18.2348C60.2297 12.8145 55.9641 10.0332 52.0266 10.0332L52.0312 10.041H52.0242ZM79.782 25.9145H83.3836V1.8129H79.782V25.9145ZM69.875 13.2559C72.0312 13.2559 74.2422 15.0981 74.2422 18.2387C74.2422 21.4418 72.0344 23.1918 69.8266 23.1918C67.4828 23.1918 65.3055 21.3012 65.3055 18.2699C65.3055 15.1293 67.5711 13.2543 69.8758 13.2543L69.875 13.2559ZM34.1992 13.2559C36.5539 13.2559 38.7852 15.1606 38.7852 18.2231C38.7852 21.2387 36.5633 23.1918 34.1883 23.1918C31.5867 23.1918 29.5242 21.1082 29.5242 18.2074C29.5242 15.3793 31.5555 13.2676 34.2039 13.2676V13.2551L34.1992 13.2559ZM52.0727 13.2559C54.4266 13.2559 56.6586 15.1606 56.6586 18.2231C56.6586 21.2387 54.4359 23.1918 52.0617 23.1918C49.4523 23.1918 47.3898 21.1082 47.3898 18.2074C47.3898 15.3793 49.4211 13.2676 52.0617 13.2676L52.0695 13.2551L52.0727 13.2559ZM92.6305 10.0371C88.4875 10.0371 85.0055 13.334 85.0055 18.2074C85.0055 23.3598 88.8852 26.4106 93.0305 26.4106C96.4758 26.4106 98.6008 24.5199 99.8664 22.8246L97.0383 20.9441C96.3039 22.0848 95.0695 23.1941 93.0227 23.1941C90.7258 23.1941 89.6688 21.9363 89.0148 20.7176L100 16.1543L99.4313 14.8215C98.3719 12.2121 95.9 10.0301 92.632 10.0301L92.6242 10.0379L92.6305 10.0371ZM24.5961 12.5527H12.9242V16.0199H21.2008C20.7945 20.8793 16.7531 22.9496 12.9406 22.9496C8.06328 22.9496 3.80547 19.1106 3.80547 13.7309C3.80547 8.49102 7.85234 4.45586 12.9461 4.45586C16.868 4.45586 19.1805 6.96133 19.1805 6.96133L21.6023 4.45118C21.6023 4.45118 18.4922 0.982427 12.8125 0.982427C5.59219 0.976177 0 7.07618 0 13.6621C0 20.1152 5.25781 26.4121 12.9984 26.4121C19.8109 26.4121 24.7953 21.7481 24.7953 14.8496C24.7953 13.3965 24.582 12.5527 24.582 12.5527H24.5961ZM92.7758 13.1777C94.2711 13.1777 95.3461 13.9731 95.8023 14.9262L88.482 17.9887C88.1656 15.6246 90.4102 13.1879 92.7773 13.1879L92.7758 13.1777ZM69.5594 10.0527C65.1648 10.0527 61.7102 13.9106 61.7102 18.2231C61.7102 23.1449 65.7102 26.4106 69.4836 26.4106C71.8117 26.4106 73.0461 25.4887 73.968 24.4262V26.0356C73.968 28.8621 72.2492 30.5496 69.6711 30.5496C67.1711 30.5496 65.9211 28.6902 65.4836 27.6395L62.3438 28.9512C63.4586 31.3106 65.7031 33.7699 69.6969 33.7699C74.0656 33.7699 77.3961 31.0168 77.3961 25.2465V10.5512H73.9688V11.9363C72.9141 10.8113 71.4734 10.0613 69.5594 10.0613V10.0535V10.0527Z" fill="#A1B0AE"/>
</g>
<defs>
<clipPath id="clip0_3_389">
<rect width="100" height="32.8125" fill="white" transform="translate(0 0.982422)"/>
</clipPath>
</defs>
</svg>
