<svg width="150" height="37" viewBox="0 0 150 37" fill="none" xmlns="http://www.w3.org/2000/svg">
<g clip-path="url(#clip0_3_365)">
<path d="M49.2442 12.4221C50.8552 12.4221 51.8633 13.0438 52.6893 13.8814L52.8422 14.0409C52.8673 14.0679 52.8923 14.095 52.9172 14.1224V14.1007C52.9172 13.2298 53.6395 12.5074 54.5314 12.5074C55.4229 12.5074 56.1445 13.2298 56.1445 14.1224V21.4551C56.1445 23.4963 55.6568 24.9836 54.7009 25.9402C53.6395 27.0031 52.004 27.4705 49.7962 27.4705C48.288 27.4705 46.9713 27.2157 45.6341 26.6838C45.0821 26.472 44.7209 26.0252 44.7209 25.4297C44.7209 24.7074 45.3152 24.1127 46.0375 24.1127C46.2501 24.1127 46.4193 24.1546 46.5682 24.2186C47.5028 24.6438 48.5006 24.8986 49.7113 24.8986C51.9194 24.8986 52.9602 23.8361 52.9602 21.7953V21.2426C52.004 22.3908 50.9643 23.0918 49.2442 23.0918C46.6255 23.0918 44.2544 21.2095 44.1908 17.9143L44.1895 17.7358C44.1895 14.3349 46.6319 12.4221 49.2442 12.4221ZM50.1784 15.0999C48.6386 15.0999 47.4655 16.1408 47.4192 17.6432L47.4178 17.7781C47.4178 19.3507 48.6072 20.4136 50.1784 20.4136C51.7181 20.4136 52.9117 19.373 52.9588 17.8706L52.9602 17.7358C52.9602 16.1838 51.7495 15.0999 50.1784 15.0999ZM69.97 12.5074C71.732 12.5074 73.0064 12.9749 73.8129 13.7822C74.6625 14.6317 75.0454 15.887 75.0454 17.4173V22.6026C75.0454 23.4746 74.3444 24.1546 73.4735 24.1546C72.5685 24.1546 71.9624 23.5368 71.9254 22.8793L71.9236 22.7939C71.1377 23.6659 70.055 24.2392 68.4831 24.2392C66.3747 24.2392 64.635 23.0479 64.5776 20.8656L64.5762 20.7115C64.5762 18.2246 66.4654 17.0764 69.1631 17.0764C70.3095 17.0764 71.1377 17.2676 71.945 17.5438V17.3529C71.945 16.0142 71.1164 15.2698 69.5029 15.2698C68.6111 15.2698 67.8887 15.3978 67.2731 15.5891C67.0822 15.6527 66.955 15.6744 66.806 15.6744C66.0631 15.6744 65.468 15.0999 65.468 14.3555C65.468 13.7822 65.8285 13.2934 66.3389 13.1014C67.358 12.7193 68.4625 12.5074 69.97 12.5074ZM63.3871 12.5074C64.3853 12.5074 64.9583 13.1658 64.9583 14.0793C64.9583 14.9003 64.4433 15.4045 63.8159 15.5724L63.7483 15.5891C62.1124 15.9719 61.1992 17.2253 61.1992 19.521V22.539C61.1992 23.4316 60.4776 24.1546 59.5861 24.1546C58.6935 24.1546 57.972 23.4316 57.972 22.539V14.1224C57.972 13.2298 58.6935 12.5074 59.5861 12.5074C60.4776 12.5074 61.1992 13.2298 61.1992 14.1224V14.6317C61.667 13.5273 62.4309 12.5074 63.3871 12.5074ZM69.927 19.0109C68.5467 19.0109 67.6979 19.5633 67.6979 20.5842V20.6265C67.6979 21.4982 68.4202 22.0079 69.4599 22.0079C70.9682 22.0079 71.9873 21.1789 71.9873 20.0101V19.436C71.4352 19.1812 70.7137 19.0109 69.927 19.0109ZM90.292 12.4221C92.6921 12.4221 94.136 13.8675 94.136 16.61V22.539C94.136 23.4316 93.4137 24.1546 92.5218 24.1546C91.63 24.1546 90.9076 23.4316 90.9076 22.539V17.6722C90.9076 16.1415 90.2284 15.3548 89.0184 15.3548C87.8076 15.3548 87.0647 16.1415 87.0647 17.6722V22.539C87.0647 23.4316 86.3431 24.1546 85.4505 24.1546C84.5587 24.1546 83.8364 23.4316 83.8364 22.539V17.6722C83.8364 16.1415 83.1578 15.3548 81.9471 15.3548C80.7364 15.3548 79.9942 16.1415 79.9942 17.6722V22.539C79.9942 23.4316 79.2719 24.1546 78.38 24.1546C77.4874 24.1546 76.7658 23.4316 76.7658 22.539V14.1224C76.7658 13.2298 77.4874 12.5074 78.38 12.5074C79.2719 12.5074 79.9942 13.2298 79.9942 14.1224V14.2504C80.7364 13.2934 81.7139 12.4221 83.3487 12.4221C84.8349 12.4221 85.9607 13.0808 86.5546 14.229C87.5531 13.0599 88.7425 12.4221 90.292 12.4221ZM109.404 12.4221C111.804 12.4221 113.248 13.8675 113.248 16.61V22.539C113.248 23.4316 112.527 24.1546 111.634 24.1546C110.742 24.1546 110.02 23.4316 110.02 22.539V17.6722C110.02 16.1415 109.341 15.3548 108.131 15.3548C106.92 15.3548 106.177 16.1415 106.177 17.6722V22.539C106.177 23.4316 105.456 24.1546 104.563 24.1546C103.671 24.1546 102.949 23.4316 102.949 22.539V17.6722C102.949 16.1415 102.27 15.3548 101.059 15.3548C99.8487 15.3548 99.1062 16.1415 99.1062 17.6722V22.539C99.1062 23.4316 98.3839 24.1546 97.4924 24.1546C96.5998 24.1546 95.8782 23.4316 95.8782 22.539V14.1224C95.8782 13.2298 96.5998 12.5074 97.4924 12.5074C98.3839 12.5074 99.1062 13.2298 99.1062 14.1224V14.2504C99.8487 13.2934 100.826 12.4221 102.461 12.4221C103.947 12.4221 105.073 13.0808 105.667 14.229C106.665 13.0599 107.855 12.4221 109.404 12.4221ZM119.705 12.5074C121.467 12.5074 122.741 12.9749 123.548 13.7822C124.397 14.6317 124.779 15.887 124.779 17.4173V22.6026C124.779 23.4746 124.079 24.1546 123.209 24.1546C122.303 24.1546 121.697 23.5368 121.66 22.8793L121.658 22.7939C120.872 23.6659 119.789 24.2392 118.219 24.2392C116.109 24.2392 114.37 23.0479 114.312 20.8656L114.311 20.7115C114.311 18.2246 116.201 17.0764 118.897 17.0764C120.044 17.0764 120.872 17.2676 121.679 17.5438V17.3529C121.679 16.0142 120.852 15.2698 119.237 15.2698C118.345 15.2698 117.623 15.3978 117.008 15.5891C116.817 15.6527 116.69 15.6744 116.541 15.6744C115.797 15.6744 115.203 15.0999 115.203 14.3555C115.203 13.7822 115.564 13.2934 116.073 13.1014C117.093 12.7193 118.197 12.5074 119.705 12.5074ZM119.662 19.0109C118.281 19.0109 117.433 19.5633 117.433 20.5842V20.6265C117.433 21.4982 118.154 22.0079 119.195 22.0079C120.702 22.0079 121.722 21.1789 121.722 20.0101V19.436C121.17 19.1812 120.448 19.0109 119.662 19.0109ZM131.916 12.5074C132.913 12.5074 133.486 13.1658 133.486 14.0793C133.486 14.9003 132.972 15.4045 132.344 15.5724L132.276 15.5891C130.641 15.9719 129.728 17.2253 129.728 19.521V22.539C129.728 23.4316 129.007 24.1546 128.114 24.1546C127.222 24.1546 126.5 23.4316 126.5 22.539V14.1224C126.5 13.2298 127.222 12.5074 128.114 12.5074C129.007 12.5074 129.728 13.2298 129.728 14.1224V14.6317C130.195 13.5273 130.959 12.5074 131.916 12.5074ZM136.077 8.38354C136.97 8.38354 137.692 9.10549 137.692 9.99809V22.539C137.692 23.4316 136.97 24.1546 136.077 24.1546C135.185 24.1546 134.464 23.4316 134.464 22.539V9.99809C134.464 9.10549 135.185 8.38354 136.077 8.38354ZM148.458 12.5074C149.286 12.5074 149.986 13.1444 149.986 13.9947C149.986 14.2504 149.902 14.6111 149.838 14.7601L145.867 24.3036C144.911 26.6202 143.956 27.4919 142.024 27.4919C141.301 27.4919 140.792 27.3859 140.261 27.1943C139.794 27.0244 139.241 26.6416 139.241 25.8556C139.241 25.0689 139.858 24.5371 140.516 24.5371C140.714 24.5371 140.848 24.5629 140.958 24.5943L141.047 24.6221C141.323 24.7074 141.493 24.7504 141.727 24.7504C142.3 24.7504 142.576 24.6438 142.873 24.0697L142.979 23.8148L139.094 14.8024C139.009 14.5898 138.923 14.2713 138.923 14.0584C138.923 13.1444 139.624 12.5074 140.516 12.5074C141.294 12.5074 141.756 12.9219 142.035 13.6371L144.529 20.35L146.907 13.7391C147.163 13.0599 147.629 12.5074 148.458 12.5074Z" fill="#A1B0AE"/>
<path d="M17.6224 0.664307C27.363 0.664307 35.2585 8.5675 35.2585 18.3177C35.2585 27.7682 27.8398 35.4846 18.5131 35.9489H16.7318C7.4057 35.4846 -0.0136719 27.7682 -0.0136719 18.3177C-0.0136719 8.5675 7.88254 0.664307 17.6224 0.664307Z" fill="#A1B0AE"/>
<path d="M16.9251 7.96786C20.8853 7.70232 24.4072 9.66185 26.3671 12.7243C26.6771 13.2587 26.5267 13.938 26.0114 14.2955C25.4686 14.6725 24.7544 14.5062 24.3461 13.931C22.9302 11.9362 20.4583 10.286 17.6404 10.286C12.2337 10.286 8.08479 15.7155 10.2639 21.4021C11.2238 23.9074 13.4989 25.701 16.1476 26.1174C19.401 26.6282 22.3767 25.4701 24.0905 22.9534L23.0195 23.1038H21.1715C20.5848 23.1038 20.042 22.7077 19.9376 22.1299C19.8004 21.3716 20.3793 20.7107 21.1122 20.7107H27.601V27.5234C27.601 28.2571 26.9415 28.8367 26.1832 28.6999C25.6058 28.5955 25.2108 28.0515 25.2108 27.4649V26.3274L25.4355 25.0688C23.5377 27.263 20.7518 28.6194 17.6404 28.6194C11.717 28.6194 6.95423 23.7125 7.29884 17.7026C7.59527 12.5379 11.7685 8.31431 16.9251 7.96786Z" fill="white"/>
</g>
<defs>
<clipPath id="clip0_3_365">
<rect width="150" height="35.4492" fill="white" transform="translate(0 0.664062)"/>
</clipPath>
</defs>
</svg>
