<svg width="18" height="21" viewBox="0 0 18 21" fill="none" xmlns="http://www.w3.org/2000/svg">
<path d="M8.98143 0.942977L9.28872 0.224227C9.1916 0.182677 9.08706 0.161255 8.98143 0.161255C8.87579 0.161255 8.77125 0.182677 8.67413 0.224227L8.98143 0.942977ZM8.98143 19.693L8.59393 20.3711C8.71195 20.4385 8.84551 20.474 8.98143 20.474C9.11734 20.474 9.25091 20.4385 9.36893 20.3711L8.98143 19.693ZM8.67309 0.225269L2.01476 3.07839L2.62726 4.51589L9.28767 1.66173L8.67309 0.225269ZM0.908508 4.75444V11.9003H2.47101V4.75444H0.908508ZM4.45122 18.0044L8.59393 20.3711L9.36893 19.0149L5.22622 16.6471L4.45122 18.0044ZM9.36893 20.3711L13.5116 18.0044L12.7366 16.6471L8.59393 19.0149L9.36893 20.3711ZM17.0543 11.8992V4.75548H15.4918V11.9013L17.0543 11.8992ZM15.9502 3.07944L9.28872 0.225269L8.67413 1.66069L15.3346 4.51589L15.9502 3.07944ZM17.0543 4.75548C17.0543 4.02631 16.62 3.36694 15.9502 3.07944L15.3346 4.51589C15.3813 4.53607 15.4212 4.56952 15.4491 4.6121C15.4771 4.65469 15.4919 4.70454 15.4918 4.75548H17.0543ZM13.5116 18.0044C14.5878 17.3895 15.4822 16.501 16.1044 15.4291C16.7265 14.3571 17.0542 13.1397 17.0543 11.9003H15.4918C15.4916 12.8641 15.2367 13.8108 14.7529 14.6444C14.269 15.478 13.5735 16.1689 12.7366 16.6471L13.5116 18.0044ZM0.908508 11.9003C0.90862 13.1397 1.23635 14.3571 1.8585 15.4291C2.48065 16.501 3.3751 17.3895 4.45122 18.0044L5.22622 16.6471C4.38924 16.1688 3.69358 15.4777 3.20973 14.6439C2.72588 13.8101 2.47103 12.8632 2.47101 11.8992L0.908508 11.9003ZM2.01268 3.07839C1.68497 3.21899 1.4057 3.45262 1.20944 3.75034C1.01319 4.04806 0.908555 4.39785 0.908508 4.75444H2.47101C2.47101 4.65027 2.53351 4.55548 2.62934 4.51381L2.01268 3.07839Z" fill="#095A66"/>
<path d="M12.1068 8.23462L7.94008 12.4013L5.85675 10.318" stroke="#095A66" stroke-width="1.5625" stroke-linecap="round" stroke-linejoin="round"/>
</svg>
