<svg width="19" height="19" viewBox="0 0 19 19" fill="none" xmlns="http://www.w3.org/2000/svg">
<path d="M10.3138 1.58789C11.2045 1.59027 11.6565 1.59502 12.0468 1.6061L12.2004 1.61164C12.3777 1.61797 12.5527 1.62589 12.7641 1.63539C13.6064 1.67497 14.1811 1.80797 14.6854 2.00352C15.2079 2.2046 15.6481 2.47693 16.0883 2.91631C16.4908 3.31206 16.8023 3.79077 17.0011 4.31914C17.1966 4.82343 17.3296 5.39818 17.3692 6.24131C17.3787 6.45189 17.3866 6.62685 17.3929 6.80497L17.3977 6.95856C17.4096 7.34806 17.4143 7.8001 17.4159 8.69072L17.4167 9.28131V10.3184C17.4186 10.8958 17.4126 11.4733 17.3985 12.0506L17.3937 12.2041C17.3874 12.3823 17.3795 12.5572 17.37 12.7678C17.3304 13.6109 17.1958 14.1849 17.0011 14.69C16.8029 15.2186 16.4913 15.6975 16.0883 16.0928C15.6924 16.4952 15.2137 16.8067 14.6854 17.0056C14.1811 17.2011 13.6064 17.3341 12.7641 17.3737C12.5762 17.3826 12.3883 17.3905 12.2004 17.3975L12.0468 17.4022C11.6565 17.4133 11.2045 17.4188 10.3138 17.4204L9.72326 17.4212H8.68697C8.10926 17.4232 7.53155 17.4171 6.95401 17.403L6.80043 17.3983C6.61249 17.3911 6.4246 17.383 6.23676 17.3737C5.39443 17.3341 4.81968 17.2011 4.31459 17.0056C3.78629 16.8072 3.30776 16.4956 2.91255 16.0928C2.50963 15.6972 2.19785 15.2185 1.99897 14.69C1.80343 14.1857 1.67043 13.6109 1.63084 12.7678C1.62202 12.58 1.61411 12.3921 1.60709 12.2041L1.60313 12.0506C1.58855 11.4733 1.58195 10.8958 1.58334 10.3184V8.69072C1.58113 8.11328 1.58694 7.53584 1.60076 6.95856L1.6063 6.80497C1.61263 6.62685 1.62055 6.45189 1.63005 6.24131C1.66963 5.39818 1.80263 4.82422 1.99818 4.31914C2.19697 3.79023 2.50937 3.31137 2.91334 2.91631C3.30846 2.51372 3.78666 2.20221 4.31459 2.00352C4.81968 1.80797 5.39363 1.67497 6.23676 1.63539C6.44734 1.62589 6.62309 1.61797 6.80043 1.61164L6.95401 1.60689C7.53129 1.59282 8.10873 1.58675 8.68618 1.58868L10.3138 1.58789ZM9.50001 5.54622C8.45019 5.54622 7.44338 5.96326 6.70105 6.70559C5.95871 7.44792 5.54168 8.45474 5.54168 9.50456C5.54168 10.5544 5.95871 11.5612 6.70105 12.3035C7.44338 13.0459 8.45019 13.4629 9.50001 13.4629C10.5498 13.4629 11.5566 13.0459 12.299 12.3035C13.0413 11.5612 13.4583 10.5544 13.4583 9.50456C13.4583 8.45474 13.0413 7.44792 12.299 6.70559C11.5566 5.96326 10.5498 5.54622 9.50001 5.54622ZM9.50001 7.12956C9.8119 7.12951 10.1207 7.19089 10.4089 7.31019C10.6971 7.4295 10.9589 7.6044 11.1795 7.8249C11.4001 8.0454 11.5751 8.30719 11.6945 8.59532C11.8139 8.88345 11.8754 9.19227 11.8754 9.50416C11.8755 9.81605 11.8141 10.1249 11.6948 10.4131C11.5755 10.7012 11.4006 10.9631 11.1801 11.1837C10.9596 11.4042 10.6978 11.5792 10.4096 11.6986C10.1215 11.818 9.81269 11.8795 9.5008 11.8796C8.87091 11.8796 8.26682 11.6293 7.82142 11.1839C7.37602 10.7385 7.1258 10.1344 7.1258 9.50456C7.1258 8.87467 7.37602 8.27058 7.82142 7.82518C8.26682 7.37978 8.87091 7.12956 9.5008 7.12956M13.6571 4.35872C13.3946 4.35872 13.1429 4.46298 12.9573 4.64857C12.7717 4.83415 12.6675 5.08585 12.6675 5.34831C12.6675 5.61076 12.7717 5.86247 12.9573 6.04805C13.1429 6.23363 13.3946 6.33789 13.6571 6.33789C13.9195 6.33789 14.1712 6.23363 14.3568 6.04805C14.5424 5.86247 14.6466 5.61076 14.6466 5.34831C14.6466 5.08585 14.5424 4.83415 14.3568 4.64857C14.1712 4.46298 13.9195 4.35872 13.6571 4.35872Z" fill="white"/>
</svg>
