<svg width="19" height="19" viewBox="0 0 19 19" fill="none" xmlns="http://www.w3.org/2000/svg">
<path d="M5.49418 3.96303C5.49397 4.38296 5.32696 4.7856 5.02987 5.08239C4.73279 5.37917 4.32998 5.54578 3.91006 5.54557C3.49013 5.54536 3.08749 5.37835 2.7907 5.08127C2.49392 4.78418 2.3273 4.38137 2.32751 3.96145C2.32772 3.54152 2.49474 3.13888 2.79182 2.84209C3.0889 2.54531 3.49171 2.3787 3.91164 2.37891C4.33157 2.37912 4.73421 2.54613 5.03099 2.84321C5.32778 3.14029 5.49439 3.54311 5.49418 3.96303ZM5.54168 6.71803H2.37501V16.6297H5.54168V6.71803ZM10.545 6.71803H7.39418V16.6297H10.5133V11.4284C10.5133 8.53095 14.2896 8.26178 14.2896 11.4284V16.6297H17.4167V10.3518C17.4167 5.4672 11.8275 5.64928 10.5133 8.04803L10.545 6.71803Z" fill="white"/>
</svg>
