<svg width="91" height="28" viewBox="0 0 91 28" fill="none" xmlns="http://www.w3.org/2000/svg">
<path d="M7.64054 21.9881C5.45655 24.1722 1.75769 24.1635 0.724701 21.2527C0.522456 20.6828 0.360754 20.0968 0.241823 19.4989C-0.243772 17.0576 0.00545287 14.5273 0.957983 12.2276C1.91051 9.92805 3.52356 7.96255 5.59315 6.57969C7.66277 5.19684 10.096 4.45874 12.585 4.45874C15.0741 4.45874 17.5073 5.19684 19.5768 6.57969C21.6465 7.96255 23.2595 9.92805 24.212 12.2277C25.1646 14.5273 25.4138 17.0576 24.9282 19.4989C24.8093 20.0968 24.6476 20.6828 24.4453 21.2527C23.4123 24.1635 19.7135 24.1722 17.5294 21.9881L14.1581 18.6168C13.836 18.2947 13.8693 17.7636 13.9582 17.3168C14.0121 17.0453 13.9844 16.7638 13.8785 16.5079C13.7725 16.2521 13.5931 16.0334 13.3628 15.8796C13.1326 15.7258 12.8619 15.6437 12.585 15.6437C12.3081 15.6437 12.0375 15.7258 11.8072 15.8796C11.5769 16.0334 11.3975 16.2521 11.2915 16.5079C11.1856 16.7638 11.1578 17.0453 11.2119 17.3168C11.3007 17.7636 11.3339 18.2947 11.0119 18.6168L7.64054 21.9881Z" fill="#095A66"/>
<path d="M35.67 21L39.23 9.44C39.69 7.98 40.89 7.28 42.15 7.28C43.43 7.28 44.63 7.98 45.09 9.44L48.65 21H45.67L44.89 18.24L39.43 18.26L38.65 21H35.67ZM41.73 10.3L40.19 15.64H44.13L42.61 10.3C42.53 10.02 42.41 9.9 42.17 9.9C41.95 9.9 41.81 10.02 41.73 10.3ZM53.8744 20.98L50.9544 21V7.54H55.6944C59.5144 7.54 61.8544 9.32 61.8544 12.44C61.8544 15.68 59.5544 17.44 55.8544 17.44H53.8744V20.98ZM55.7744 10.24H53.8744V14.74H55.7744C57.6944 14.74 58.8544 14 58.8544 12.44C58.8544 10.96 57.6944 10.24 55.7744 10.24ZM73.8361 21H66.5961C64.7361 21 64.0161 20.04 64.0161 18.5V10.06C64.0161 8.52 64.7361 7.54 66.5961 7.54H73.7161V10.16H66.9361V12.96H73.2961V15.58H66.9361V18.38H73.8361V21ZM78.6565 21H75.1565L78.3565 15.9C78.8365 15.14 79.0365 14.64 79.0365 14.16C79.0365 13.66 78.8165 13.18 78.3565 12.44L75.2965 7.54H78.7165L81.0965 11.48C81.3765 11.96 81.5765 12.44 81.7165 12.94H82.7965C82.9165 12.44 83.1365 11.96 83.4165 11.48L85.7965 7.54H89.2165L86.1365 12.44C85.6765 13.18 85.4765 13.66 85.4765 14.16C85.4765 14.64 85.6565 15.14 86.1365 15.9L89.3365 21H85.8565L83.4165 17.06C83.1365 16.58 82.9365 16.1 82.7965 15.62H81.7165C81.5765 16.1 81.3565 16.58 81.0765 17.06L78.6565 21Z" fill="#095A66"/>
</svg>
