<svg width="110" height="35" viewBox="0 0 110 35" fill="none" xmlns="http://www.w3.org/2000/svg">
<g clip-path="url(#clip0_3_391)">
<path d="M56.6535 12.4762C61.7069 12.4762 65.3038 16.3213 65.3038 21.2044C65.3038 26.1661 61.6686 29.9238 56.6535 29.9238C51.6364 29.9238 48.0032 26.2025 48.0032 21.2044C48.0032 16.2859 51.6246 12.4762 56.6535 12.4762ZM74.8168 12.4762C79.8702 12.4762 83.4671 16.3213 83.4671 21.2044C83.4671 26.1661 79.8299 29.9238 74.8168 29.9238C69.7997 29.9238 66.1665 26.2025 66.1665 21.2044C66.1665 16.2859 69.7879 12.4762 74.8168 12.4762ZM104.04 12.493C107.087 12.493 110 14.336 110 18.758V29.4462H105.68V19.6634C105.68 17.8872 104.809 16.5475 102.766 16.5475C100.857 16.5475 99.7181 18.0219 99.7181 19.798V29.4472H95.299V19.6634C95.299 17.8872 94.3951 16.5475 92.3848 16.5475C90.4422 16.5475 89.3032 17.9885 89.3032 19.798V29.4472H84.8508V12.9619H89.1037V14.9729C90.0075 13.3649 92.1181 12.493 93.9259 12.493C96.1704 12.493 97.9782 13.4651 98.8152 15.2403C100.12 13.2292 101.863 12.493 104.04 12.493ZM46.589 5.18896V29.4462H42.1354V5.18896H46.589ZM74.8168 16.455C72.1995 16.455 70.0702 18.5859 70.0702 21.2034C70.0702 23.821 72.1995 25.9519 74.8168 25.9519C77.4339 25.9519 79.5634 23.821 79.5634 21.2034C79.5624 18.5859 77.433 16.455 74.8168 16.455ZM56.6535 16.511C54.0658 16.511 51.9609 18.6163 51.9609 21.2055C51.9609 23.7944 54.0658 25.8998 56.6535 25.8998C59.2412 25.8998 61.345 23.7944 61.345 21.2055C61.345 18.6163 59.2412 16.511 56.6535 16.511Z" fill="#A1B0AE"/>
<path d="M33.1593 15.4741H23.4631L31.8605 10.6259L30.0164 7.43083L21.6189 12.2791L26.4661 3.8823L23.271 2.03708L18.4239 10.4338V0.738281H14.7354V10.4348L9.88639 2.03708L6.69235 3.88138L11.5405 12.2781L3.14301 7.43083L1.29877 10.6249L9.69621 15.4732H0V19.1618H9.69528L1.29877 24.01L3.14301 27.2051L11.5395 22.3577L6.69143 30.7545L9.88639 32.5988L14.7345 24.2012V33.8976H18.423V24.202L23.2702 32.5988L26.4651 30.7545L21.617 22.3569L30.0144 27.2051L31.8587 24.01L23.4622 19.1627H33.1574V15.4741H33.1593ZM16.5797 22.3345C13.7985 22.3345 11.5442 20.0803 11.5442 17.2989C11.5442 14.5176 13.7985 12.2633 16.5797 12.2633C19.3609 12.2633 21.6151 14.5176 21.6151 17.2989C21.6151 20.0803 19.3609 22.3345 16.5797 22.3345Z" fill="#A1B0AE"/>
</g>
<defs>
<clipPath id="clip0_3_391">
<rect width="110" height="33.3008" fill="white" transform="translate(0 0.738281)"/>
</clipPath>
</defs>
</svg>
