<svg width="28" height="28" viewBox="0 0 28 28" fill="none" xmlns="http://www.w3.org/2000/svg">
<path d="M13.5747 25.7064C19.8229 25.7064 24.8877 20.6416 24.8877 14.3934C24.8877 8.14526 19.8229 3.08044 13.5747 3.08044C7.32656 3.08044 2.26175 8.14526 2.26175 14.3934C2.26175 20.6416 7.32656 25.7064 13.5747 25.7064Z" stroke="#095A66" stroke-width="1.35756" stroke-linecap="round" stroke-linejoin="round"/>
<path d="M16.9688 10.4339C16.1938 9.65899 14.8295 9.12049 13.5749 9.08655M13.5749 9.08655C12.0816 9.04583 10.7466 9.72121 10.7466 11.5652C10.7466 14.9591 16.9688 13.2622 16.9688 16.6561C16.9688 18.5917 15.3126 19.4232 13.5749 19.361M13.5749 9.08655V7.04004M10.181 17.7874C10.9096 18.7603 12.266 19.3146 13.5749 19.361M13.5749 19.361V21.7469" stroke="#095A66" stroke-width="1.35756" stroke-linecap="round" stroke-linejoin="round"/>
</svg>
