<svg width="26" height="26" viewBox="0 0 26 26" fill="none" xmlns="http://www.w3.org/2000/svg">
<path d="M12.9814 3.94298L13.2887 3.22423C13.1916 3.18268 13.0871 3.16125 12.9814 3.16125C12.8758 3.16125 12.7713 3.18268 12.6741 3.22423L12.9814 3.94298ZM12.9814 22.693L12.5939 23.3711C12.7119 23.4385 12.8455 23.474 12.9814 23.474C13.1173 23.474 13.2509 23.4385 13.3689 23.3711L12.9814 22.693ZM12.6731 3.22527L6.01476 6.07839L6.62726 7.51589L13.2877 4.66173L12.6731 3.22527ZM4.90851 7.75444V14.9003H6.47101V7.75444H4.90851ZM8.45122 21.0044L12.5939 23.3711L13.3689 22.0149L9.22622 19.6471L8.45122 21.0044ZM13.3689 23.3711L17.5116 21.0044L16.7366 19.6471L12.5939 22.0149L13.3689 23.3711ZM21.0543 14.8992V7.75548H19.4918V14.9013L21.0543 14.8992ZM19.9502 6.07944L13.2887 3.22527L12.6741 4.66069L19.3346 7.51589L19.9502 6.07944ZM21.0543 7.75548C21.0543 7.02631 20.62 6.36694 19.9502 6.07944L19.3346 7.51589C19.3813 7.53607 19.4212 7.56952 19.4491 7.6121C19.4771 7.65469 19.4919 7.70454 19.4918 7.75548H21.0543ZM17.5116 21.0044C18.5878 20.3895 19.4822 19.501 20.1044 18.4291C20.7265 17.3571 21.0542 16.1397 21.0543 14.9003H19.4918C19.4916 15.8641 19.2367 16.8108 18.7529 17.6444C18.269 18.478 17.5735 19.1689 16.7366 19.6471L17.5116 21.0044ZM4.90851 14.9003C4.90862 16.1397 5.23635 17.3571 5.8585 18.4291C6.48065 19.501 7.3751 20.3895 8.45122 21.0044L9.22622 19.6471C8.38924 19.1688 7.69358 18.4777 7.20973 17.6439C6.72588 16.8101 6.47103 15.8632 6.47101 14.8992L4.90851 14.9003ZM6.01268 6.07839C5.68497 6.21899 5.4057 6.45262 5.20944 6.75034C5.01319 7.04806 4.90855 7.39785 4.90851 7.75444H6.47101C6.47101 7.65027 6.53351 7.55548 6.62934 7.51381L6.01268 6.07839Z" fill="#095A66"/>
<path d="M16.1068 11.2346L11.9401 15.4013L9.85675 13.318" stroke="#095A66" stroke-width="1.5625" stroke-linecap="round" stroke-linejoin="round"/>
</svg>
