<svg width="100" height="19" viewBox="0 0 100 19" fill="none" xmlns="http://www.w3.org/2000/svg">
<g clip-path="url(#clip0_3_237)">
<path d="M13.8944 8.47375C14.0523 9.10533 14.1049 9.78954 14.1575 10.5264H17.2102V8.47375H13.8944Z" fill="#697489"/>
<path d="M3.99995 8.47363H0.631531V10.4736H3.68416C3.73679 9.78942 3.84206 9.10521 3.99995 8.47363Z" fill="#697489"/>
<path d="M5.52627 4.68433H0.631531V6.73696H4.47364C4.78943 6.00012 5.15785 5.31591 5.52627 4.68433Z" fill="#697489"/>
<path d="M12.368 4.6842C12.7364 5.26315 13.1049 5.94736 13.4206 6.73684H17.2627V4.6842H12.368Z" fill="#697489"/>
<path d="M0.631531 0.94751V3.00014H6.94732C7.68416 2.31593 8.421 1.94751 8.94732 1.94751C9.47364 1.94751 10.2105 2.31593 10.9473 3.00014H17.2105V0.94751H0.631531Z" fill="#697489"/>
<path d="M12.1052 15.9475C11.2105 16.6317 10.1578 16.9475 8.94732 16.9475C7.78943 16.9475 6.68416 16.6317 5.78943 15.9475H0.631531V18.0001H17.2105V15.9475H12.1052Z" fill="#697489"/>
<path d="M14.1051 12.2106C13.9998 13 13.7893 13.6843 13.4735 14.2632H17.2103V12.2106H14.1051Z" fill="#697489"/>
<path d="M3.78943 12.2106H0.631531V14.2632H4.36837C4.10522 13.6316 3.89469 13 3.78943 12.2106Z" fill="#697489"/>
<path d="M25.1577 16.0001C24.1051 14.7896 23.4209 13.2107 23.4209 10.9475V0.94751H25.7893V11.0528C25.7893 12.6844 26.1577 13.6844 26.842 14.4212C27.6841 15.3686 28.8946 15.9475 30.3156 15.9475C31.7367 15.9475 32.9472 15.3686 33.7893 14.4212C34.4735 13.6844 34.842 12.6844 34.842 11.0528V0.94751H37.2104V10.9475C37.2104 13.2633 36.5262 14.8422 35.4735 16.0001C34.2104 17.3686 32.3683 18.2633 30.3156 18.2633C28.263 18.2107 26.4209 17.3686 25.1577 16.0001Z" fill="#697489"/>
<path d="M51.6311 15.9474C54.9995 15.9474 57.5784 13.2105 57.5784 9.47368C57.5784 5.78947 55.0521 2.99999 51.6311 2.99999C48.2626 2.99999 45.6837 5.78947 45.6837 9.47368C45.7363 13.1579 48.2626 15.9474 51.6311 15.9474ZM51.6311 0.684204C56.3153 0.684204 59.9469 4.47368 59.9469 9.47368C59.9469 14.421 56.3153 18.2632 51.6311 18.2632C46.9469 18.2632 43.3153 14.4737 43.3153 9.47368C43.3679 4.47368 46.9469 0.684204 51.6311 0.684204Z" fill="#697489"/>
<path d="M76.2104 0.947388L71.3683 13.7895L66.4735 0.947388H63.9998L70.5262 18H72.1577L78.6841 0.947388H76.2104Z" fill="#697489"/>
<path d="M91.0529 15.9474C94.4214 15.9474 97.0003 13.2105 97.0003 9.47368C97.0003 5.78947 94.474 2.99999 91.0529 2.99999C87.6845 2.99999 85.1056 5.78947 85.1056 9.47368C85.1056 13.1579 87.6319 15.9474 91.0529 15.9474ZM91.0529 0.684204C95.7372 0.684204 99.3687 4.47368 99.3687 9.47368C99.3687 14.421 95.7372 18.2632 91.0529 18.2632C86.3687 18.2632 82.7372 14.4737 82.7372 9.47368C82.7372 4.47368 86.3161 0.684204 91.0529 0.684204Z" fill="#697489"/>
</g>
<defs>
<clipPath id="clip0_3_237">
<rect width="100" height="18.9474" fill="white"/>
</clipPath>
</defs>
</svg>
