<svg width="96" height="39" viewBox="0 0 96 39" fill="none" xmlns="http://www.w3.org/2000/svg">
<path d="M54.9064 7.84961V35.6918L60.4017 35.7913V17.629C60.4017 14.9769 63.3147 13.4011 65.6978 13.1389C68.5041 12.83 71.6446 15.2321 71.6446 19.1743C71.6446 22.2409 68.6235 24.8729 66.5975 25.1849C63.8171 25.6133 62.4171 24.5243 61.6004 23.9163V28.7048C65.1847 30.8175 71.8515 30.0504 74.9854 24.8771C77.4925 28.6042 82.1629 30.5377 86.7637 29.3516L87.7507 29.0437C93.038 27.1317 96.0028 21.5181 94.5973 16.0804C93.0918 10.2559 87.144 6.75349 81.312 8.25697C78.5869 8.95947 76.3682 10.6306 74.9324 12.8061C74.9342 12.7941 74.9369 12.784 74.9386 12.7719C73.0562 10.0161 69.7918 8.09707 65.7974 8.20095C62.5223 8.28623 59.8007 9.64375 59.8007 9.64375V7.84971L54.9064 7.84961ZM84.083 13.0393C87.3388 13.0393 89.98 15.674 89.98 18.9256C89.98 22.1771 87.3388 24.8149 84.083 24.8149C80.8272 24.8149 78.1891 22.177 78.1891 18.9256C78.1891 15.6741 80.8272 13.0394 84.083 13.0394V13.0393Z" fill="#A1B0AE"/>
<path fill-rule="evenodd" clip-rule="evenodd" d="M31.7268 7.85059V35.6916L37.2212 35.792V17.6297C37.2212 14.9778 40.1347 13.4025 42.5177 13.1402C45.324 12.8313 48.7126 15.5822 48.7126 19.175C48.7126 22.0882 45.945 24.9449 43.4162 25.3346C41.327 25.6563 39.2379 24.5252 38.4212 23.917V28.7048C41.1933 30.8098 53.5065 30.9011 53.5065 18.6275C53.5065 12.8006 48.0071 8.06024 42.6182 8.20044C39.3431 8.28561 36.6213 9.64522 36.6213 9.64522V7.85059H31.7268ZM3.39891 8.39815L0.70037 14.8345C4.44076 13.4572 7.42584 13.2657 10.2425 13.338L0.00294495 29.4042H26.4304C28.4131 29.3177 28.7109 28.0486 28.7542 27.0834V17.1309H22.9339V24.4646H10.0446L20.1349 8.39815H3.39891Z" fill="#A1B0AE"/>
<path fill-rule="evenodd" clip-rule="evenodd" d="M26.9788 15.5088C30.3764 14.2893 30.4998 9.46085 27.2786 5.67994C27.3262 6.75298 27.1381 7.21417 26.8539 7.42621C25.8675 5.7672 25.475 4.65784 23.0321 2.9856C24.1813 7.30223 22.5183 7.98263 22.1329 10.8189C21.7695 13.4932 24.4986 15.4017 24.5809 15.3093C24.3986 15.2941 24.158 12.8197 25.6549 12.7148C27.0574 12.6167 27.0491 15.4687 26.9788 15.5088Z" fill="#A1B0AE"/>
</svg>
